<svg width="176" height="86" viewBox="0 0 176 86" fill="none" xmlns="http://www.w3.org/2000/svg">
<path d="M55.2334 55.4133H66.1133V58.9488H60.9376V83.7901H55.2334V55.4133Z" fill="white"/>
<path d="M72.5635 73.1372L73.5411 58.9488H73.8686L74.8462 73.1372H72.5635ZM66.2466 83.7901H71.8315L72.3601 76.2539H75.0496L75.5805 83.7901H81.1631L78.1883 55.4133H69.2215L66.2466 83.7901Z" fill="white"/>
<path d="M89.3325 73.8582V79.2079C89.3325 79.929 89.8938 80.1383 90.2212 80.1383C90.7592 80.1383 91.1334 79.6964 91.1334 79.2079V72.6022C91.1334 71.7183 90.9696 70.7414 88.8414 70.7414H86.526V67.6246H88.9349C90.5487 67.6246 91.1334 67.2525 91.1334 65.508V59.8792C91.1334 59.3907 90.7592 58.9488 90.2212 58.9488C89.8938 58.9488 89.3325 59.1349 89.3325 59.8792V64.5078H83.626V60.4839C83.626 58.5069 83.8598 55.4133 87.8591 55.4133H92.5834C96.5827 55.4133 96.8399 58.5069 96.8399 60.4839V65.0195C96.8399 68.1131 94.6649 68.9504 92.9576 68.8806V69.1598C96.7931 69.0667 96.8399 71.9974 96.8399 72.9976V78.7195C96.8399 80.7198 96.5827 83.7901 92.5834 83.7901H87.8591C83.8598 83.7901 83.626 80.7198 83.626 78.7195V73.8582H89.3325Z" fill="white"/>
<path d="M100.582 55.4133H113.796V83.7901H108.089V58.9488H106.289V83.7901H100.582V55.4133Z" fill="white"/>
<path d="M123.245 71.0205V58.9488H123.993C124.601 58.9488 125.045 59.4605 125.045 60.3676V69.6017C125.045 70.5088 124.601 71.0205 123.993 71.0205H123.245ZM117.538 83.7901H123.245V74.1373H126.519C130.495 74.1373 130.752 71.067 130.752 69.0667V60.4839C130.752 58.5069 130.495 55.4133 126.519 55.4133H117.538V83.7901Z" fill="white"/>
<path d="M142.002 79.2079C142.002 79.6964 141.627 80.1383 141.089 80.1383C140.762 80.1383 140.201 79.929 140.201 79.2079V59.8792C140.201 59.1349 140.762 58.9488 141.089 58.9488C141.627 58.9488 142.002 59.3907 142.002 59.8792V79.2079ZM134.494 78.7195C134.494 80.7198 134.751 83.7901 138.727 83.7901H143.475C147.451 83.7901 147.708 80.7198 147.708 78.7195V60.4839C147.708 58.5069 147.451 55.4133 143.475 55.4133H138.727C134.751 55.4133 134.494 58.5069 134.494 60.4839V78.7195Z" fill="white"/>
<path d="M166.277 55.4133H173.715V83.7901H168.008V65.9965H167.798L164.851 83.7901H160.29L157.367 65.9965H157.156V83.7901H151.45V55.4133H158.864L162.582 75.3701L166.277 55.4133Z" fill="white"/>
<path d="M47.8385 16.6161C46.0914 9.01021 41.7133 2.82316 41.1099 1.823C40.1557 3.24183 36.6639 8.70783 34.8888 14.7553C32.95 21.5239 32.6646 27.5249 33.3335 33.4095C33.9977 39.3175 36.5072 45.3882 36.5072 45.3882C37.8403 48.5515 39.8376 51.9707 41.138 53.6454C43.044 51.1799 47.4245 43.8298 48.7904 34.2469C49.5504 28.8972 49.5832 24.222 47.8385 16.6161ZM41.1099 51.7381C40.2516 50.1332 38.9185 47.0862 38.7922 42.3412C38.7594 37.7823 40.6 33.8515 41.138 33.0374C41.6174 33.8515 43.2031 37.2706 43.3925 41.9458C43.5211 46.5047 41.9963 50.1099 41.1099 51.7381ZM47.331 29.5252C47.2655 32.4326 46.917 35.5029 46.4726 37.3404C46.6317 34.1771 46.2505 29.7345 45.5208 26.2456C44.7911 22.7799 42.7259 16.965 41.0771 14.2901C39.5546 16.8487 37.6789 21.8728 36.6967 26.2223C35.7097 30.5719 35.6816 35.8518 35.6816 37.4334C35.4197 36.1076 34.7648 31.3394 34.9496 26.5712C35.104 22.6403 36.0301 18.5699 36.5376 16.7091C38.4741 10.4988 40.6655 6.52144 41.0771 5.89342C41.4888 6.52144 44.2485 11.4292 45.6798 16.5696C47.1041 21.71 47.3918 26.641 47.331 29.5252Z" fill="white"/>
<path d="M44.073 55.4132H30.7912V64.2751C30.8029 64.2751 30.8123 64.2519 30.824 64.2519C33.9532 61.1351 39.0283 61.1351 42.1599 64.2519C45.2892 67.3454 45.2892 72.3927 42.1599 75.5095C42.1459 75.5327 42.1319 75.5327 42.1178 75.556C42.1015 75.556 42.0851 75.5793 42.0711 75.6025C38.9488 78.6728 34.87 80.2079 30.7912 80.2079C26.6938 80.2079 22.5963 78.6728 19.4717 75.556C13.9616 70.09 13.3091 61.6002 17.5095 55.4132C18.0754 54.5758 18.728 53.785 19.4717 53.0407C22.5963 49.9239 26.6938 48.3888 30.7912 48.3888V27.083C15.0468 27.083 2.28418 39.7595 2.28418 55.4132C2.28418 71.0669 15.0468 83.7666 30.7912 83.7666C39.0003 83.7666 46.3954 80.301 51.5968 74.7884V55.4132H44.073Z" fill="white"/>
</svg>
