<svg width="183" height="88" viewBox="0 0 183 88" fill="none" xmlns="http://www.w3.org/2000/svg">
<g clip-path="url(#clip0_200_537)">
<path d="M16.171 71.3785V72.6157H10.615V82.8955H9.22032V71.3785H16.171ZM17.2521 86.1347V74.2578H18.5343V75.6299H18.6917C18.7892 75.48 18.9242 75.2888 19.0966 75.0563C19.2728 74.8201 19.524 74.6102 19.8502 74.4265C20.1801 74.239 20.6262 74.1453 21.1886 74.1453C21.9159 74.1453 22.557 74.3271 23.1118 74.6908C23.6667 75.0544 24.0997 75.5699 24.4109 76.2373C24.722 76.9046 24.8776 77.6919 24.8776 78.5991C24.8776 79.5139 24.722 80.3068 24.4109 80.9779C24.0997 81.6452 23.6686 82.1626 23.1174 82.53C22.5663 82.8936 21.9309 83.0755 21.2111 83.0755C20.6562 83.0755 20.212 82.9836 19.8783 82.7999C19.5446 82.6125 19.2878 82.4006 19.1079 82.1644C18.9279 81.9245 18.7892 81.7258 18.6917 81.5684H18.5793V86.1347H17.2521ZM18.5568 78.5766C18.5568 79.229 18.6524 79.8044 18.8436 80.3031C19.0348 80.7979 19.3141 81.186 19.6815 81.4671C20.0489 81.7446 20.4988 81.8833 21.0311 81.8833C21.586 81.8833 22.049 81.7371 22.4201 81.4446C22.795 81.1485 23.0762 80.7511 23.2637 80.2525C23.4549 79.7501 23.5505 79.1915 23.5505 78.5766C23.5505 77.9693 23.4567 77.4219 23.2693 76.9346C23.0856 76.4435 22.8063 76.0554 22.4314 75.7705C22.0602 75.4818 21.5935 75.3375 21.0311 75.3375C20.4913 75.3375 20.0376 75.4743 19.6702 75.748C19.3028 76.0179 19.0254 76.3966 18.8379 76.884C18.6505 77.3676 18.5568 77.9318 18.5568 78.5766ZM27.4476 86.1347C27.2226 86.1347 27.022 86.1159 26.8458 86.0784C26.6696 86.0447 26.5478 86.0109 26.4803 85.9772L26.8177 84.8075C27.1401 84.89 27.4251 84.92 27.6725 84.8975C27.9199 84.875 28.1393 84.7644 28.3305 84.5657C28.5254 84.3707 28.7035 84.054 28.8647 83.6153L29.1121 82.9405L25.918 74.2578H27.3576L29.742 81.141H29.8319L32.2163 74.2578H33.6559L29.9894 84.1552C29.8244 84.6013 29.6201 84.9706 29.3764 85.263C29.1327 85.5592 28.8497 85.7785 28.5273 85.921C28.2086 86.0634 27.8487 86.1347 27.4476 86.1347ZM35.4077 82.8955V74.2578H42.2009V82.8955H40.8737V75.495H36.7348V82.8955H35.4077ZM44.6246 82.8955V74.2578H51.4178V82.8955H50.0907V75.495H45.9518V82.8955H44.6246ZM56.3834 83.098C55.836 83.098 55.3393 82.9949 54.8932 82.7887C54.447 82.5787 54.0927 82.2769 53.8303 81.8833C53.5679 81.4859 53.4367 81.006 53.4367 80.4437C53.4367 79.9488 53.5341 79.5476 53.7291 79.2402C53.924 78.929 54.1846 78.6854 54.5108 78.5092C54.8369 78.333 55.1968 78.2017 55.5905 78.1155C55.9879 78.0255 56.3871 77.9543 56.7883 77.9018C57.3131 77.8343 57.7387 77.7837 58.0648 77.75C58.3947 77.7125 58.6347 77.6506 58.7846 77.5644C58.9383 77.4782 59.0152 77.3282 59.0152 77.1145V77.0695C59.0152 76.5147 58.8634 76.0835 58.5597 75.7761C58.2598 75.4687 57.8043 75.315 57.1932 75.315C56.5596 75.315 56.0629 75.4537 55.7029 75.7311C55.343 76.0086 55.09 76.3047 54.9438 76.6197L53.6841 76.1698C53.909 75.6449 54.209 75.2363 54.5839 74.9438C54.9625 74.6477 55.3749 74.4415 55.821 74.3253C56.2709 74.2053 56.7133 74.1453 57.1482 74.1453C57.4256 74.1453 57.7443 74.179 58.1042 74.2465C58.4678 74.3103 58.8184 74.4434 59.1558 74.6458C59.497 74.8482 59.78 75.1538 60.0049 75.5624C60.2299 75.9711 60.3424 76.5184 60.3424 77.2045V82.8955H59.0152V81.7258H58.9477C58.8577 81.9133 58.7078 82.1138 58.4978 82.3275C58.2879 82.5412 58.0086 82.7231 57.6599 82.873C57.3113 83.023 56.8858 83.098 56.3834 83.098ZM56.5858 81.9058C57.1107 81.9058 57.5531 81.8027 57.913 81.5965C58.2766 81.3903 58.5503 81.1241 58.734 80.7979C58.9215 80.4718 59.0152 80.1287 59.0152 79.7688V78.5541C58.959 78.6216 58.8352 78.6835 58.644 78.7397C58.4566 78.7922 58.2392 78.8391 57.9917 78.8803C57.748 78.9178 57.51 78.9515 57.2775 78.9815C57.0488 79.0078 56.8633 79.0303 56.7208 79.049C56.3759 79.094 56.0535 79.1671 55.7536 79.2683C55.4574 79.3658 55.2175 79.5139 55.0337 79.7126C54.8538 79.9075 54.7638 80.1737 54.7638 80.5111C54.7638 80.9723 54.9344 81.3209 55.2756 81.5571C55.6205 81.7895 56.0572 81.9058 56.5858 81.9058ZM67.2185 82.8955V74.2578H68.5457V78.0143H69.4229L72.5271 74.2578H74.2367L70.7501 78.4192L74.2817 82.8955H72.5721L69.7379 79.2515H68.5457V82.8955H67.2185ZM78.8775 83.0755C78.0977 83.0755 77.4135 82.8899 76.8249 82.5187C76.2401 82.1476 75.7827 81.6283 75.4528 80.961C75.1266 80.2937 74.9635 79.5139 74.9635 78.6216C74.9635 77.7219 75.1266 76.9364 75.4528 76.2654C75.7827 75.5943 76.2401 75.0732 76.8249 74.702C77.4135 74.3309 78.0977 74.1453 78.8775 74.1453C79.6573 74.1453 80.3396 74.3309 80.9244 74.702C81.513 75.0732 81.9704 75.5943 82.2966 76.2654C82.6265 76.9364 82.7915 77.7219 82.7915 78.6216C82.7915 79.5139 82.6265 80.2937 82.2966 80.961C81.9704 81.6283 81.513 82.1476 80.9244 82.5187C80.3396 82.8899 79.6573 83.0755 78.8775 83.0755ZM78.8775 81.8833C79.4698 81.8833 79.9572 81.7314 80.3396 81.4278C80.722 81.1241 81.005 80.7248 81.1888 80.23C81.3725 79.7351 81.4643 79.199 81.4643 78.6216C81.4643 78.0443 81.3725 77.5063 81.1888 77.0077C81.005 76.5091 80.722 76.106 80.3396 75.7986C79.9572 75.4912 79.4698 75.3375 78.8775 75.3375C78.2851 75.3375 77.7978 75.4912 77.4154 75.7986C77.033 76.106 76.7499 76.5091 76.5662 77.0077C76.3825 77.5063 76.2907 78.0443 76.2907 78.6216C76.2907 79.199 76.3825 79.7351 76.5662 80.23C76.7499 80.7248 77.033 81.1241 77.4154 81.4278C77.7978 81.7314 78.2851 81.8833 78.8775 81.8833ZM89.5411 81.096L92.5553 74.2578H93.815L90.0809 82.8955H89.0012L85.3347 74.2578H86.5719L89.5411 81.096ZM86.1445 74.2578V82.8955H84.8173V74.2578H86.1445ZM92.9377 82.8955V74.2578H94.2648V82.8955H92.9377ZM96.6942 82.8955V74.2578H103.487V82.8955H102.16V75.495H98.0214V82.8955H96.6942ZM108.453 83.098C107.906 83.098 107.409 82.9949 106.963 82.7887C106.517 82.5787 106.162 82.2769 105.9 81.8833C105.637 81.4859 105.506 81.006 105.506 80.4437C105.506 79.9488 105.604 79.5476 105.799 79.2402C105.994 78.929 106.254 78.6854 106.58 78.5092C106.907 78.333 107.266 78.2017 107.66 78.1155C108.057 78.0255 108.457 77.9543 108.858 77.9018C109.383 77.8343 109.808 77.7837 110.134 77.75C110.464 77.7125 110.704 77.6506 110.854 77.5644C111.008 77.4782 111.085 77.3282 111.085 77.1145V77.0695C111.085 76.5147 110.933 76.0835 110.629 75.7761C110.329 75.4687 109.874 75.315 109.263 75.315C108.629 75.315 108.132 75.4537 107.773 75.7311C107.413 76.0086 107.16 76.3047 107.013 76.6197L105.754 76.1698C105.979 75.6449 106.279 75.2363 106.653 74.9438C107.032 74.6477 107.445 74.4415 107.891 74.3253C108.341 74.2053 108.783 74.1453 109.218 74.1453C109.495 74.1453 109.814 74.179 110.174 74.2465C110.537 74.3103 110.888 74.4434 111.225 74.6458C111.567 74.8482 111.85 75.1538 112.075 75.5624C112.299 75.9711 112.412 76.5184 112.412 77.2045V82.8955H111.085V81.7258H111.017C110.927 81.9133 110.777 82.1138 110.567 82.3275C110.357 82.5412 110.078 82.7231 109.73 82.873C109.381 83.023 108.955 83.098 108.453 83.098ZM108.655 81.9058C109.18 81.9058 109.623 81.8027 109.983 81.5965C110.346 81.3903 110.62 81.1241 110.804 80.7979C110.991 80.4718 111.085 80.1287 111.085 79.7688V78.5541C111.029 78.6216 110.905 78.6835 110.714 78.7397C110.526 78.7922 110.309 78.8391 110.061 78.8803C109.818 78.9178 109.58 78.9515 109.347 78.9815C109.118 79.0078 108.933 79.0303 108.79 79.049C108.445 79.094 108.123 79.1671 107.823 79.2683C107.527 79.3658 107.287 79.5139 107.103 79.7126C106.923 79.9075 106.833 80.1737 106.833 80.5111C106.833 80.9723 107.004 81.3209 107.345 81.5571C107.69 81.7895 108.127 81.9058 108.655 81.9058ZM120.615 77.9693V79.2065H115.847V77.9693H120.615ZM116.161 74.2578V82.8955H114.834V74.2578H116.161ZM121.628 74.2578V82.8955H120.3V74.2578H121.628ZM125.378 80.9385L129.54 74.2578H131.069V82.8955H129.742V76.2148L125.603 82.8955H124.051V74.2578H125.378V80.9385ZM134.827 80.9385L138.989 74.2578H140.518V82.8955H139.191V76.2148L135.052 82.8955H133.5V74.2578H134.827V80.9385ZM138.111 71.3785H139.349C139.349 71.9859 139.139 72.4826 138.719 72.8688C138.299 73.2549 137.729 73.448 137.009 73.448C136.301 73.448 135.736 73.2549 135.317 72.8688C134.9 72.4826 134.692 71.9859 134.692 71.3785H135.93C135.93 71.671 136.01 71.9278 136.171 72.149C136.336 72.3701 136.616 72.4807 137.009 72.4807C137.403 72.4807 137.684 72.3701 137.853 72.149C138.025 71.9278 138.111 71.671 138.111 71.3785ZM154.534 71.3785V72.6157H148.977V82.8955H147.583V71.3785H154.534ZM156.692 71.3785H158.064V80.4437H158.176L164.475 71.3785H165.824V82.8955H164.43V73.8529H164.317L158.041 82.8955H156.692V71.3785ZM175.386 82.8955L171.427 77.6094H170.009V82.8955H168.615V71.3785H170.009V76.3722H170.617L175.228 71.3785H176.893L172.236 76.4397L177.05 82.8955H175.386Z" fill="white"/>
<path d="M76.2646 12.9692H77.6488V19.7726H77.7348L82.4483 12.9692H83.7421V22.2334H82.3443V15.439H82.2583L77.5538 22.2334H76.2646V12.9692ZM90.3815 18.1758V19.3474H86.6179V18.1758H90.3815ZM86.9979 15.2852V22.2334H85.6725V15.2852H86.9979ZM91.3269 15.2852V22.2334H90.0061V15.2852H91.3269ZM96.0631 22.3736C95.3906 22.3736 94.8116 22.2213 94.3261 21.9167C93.8435 21.6091 93.4726 21.1854 93.2133 20.6456C92.9539 20.1058 92.8242 19.4876 92.8242 18.791C92.8242 18.0853 92.9569 17.4626 93.2223 16.9227C93.4877 16.3799 93.8616 15.9562 94.3442 15.6516C94.8267 15.347 95.3951 15.1947 96.0495 15.1947C96.5773 15.1947 97.0477 15.2928 97.4609 15.4888C97.874 15.6818 98.2073 15.9532 98.4606 16.303C98.7169 16.6528 98.8692 17.0615 98.9175 17.5289H97.6011C97.5287 17.2032 97.3629 16.9227 97.1035 16.6875C96.8472 16.4523 96.5034 16.3347 96.0722 16.3347C95.6952 16.3347 95.365 16.4342 95.0815 16.6332C94.801 16.8293 94.5824 17.1097 94.4256 17.4746C94.2688 17.8365 94.1904 18.2647 94.1904 18.7593C94.1904 19.2659 94.2673 19.7032 94.4211 20.0711C94.5749 20.4391 94.792 20.724 95.0724 20.9261C95.3559 21.1281 95.6892 21.2292 96.0722 21.2292C96.3285 21.2292 96.5607 21.1824 96.7688 21.0889C96.9799 20.9924 97.1563 20.8552 97.298 20.6773C97.4428 20.4994 97.5438 20.2853 97.6011 20.0349H98.9175C98.8692 20.4843 98.723 20.8854 98.4787 21.2382C98.2344 21.5911 97.9072 21.8685 97.4971 22.0706C97.09 22.2726 96.612 22.3736 96.0631 22.3736ZM99.838 16.4523V15.2852H105.701V16.4523H103.434V22.2334H102.113V16.4523H99.838ZM108.457 20.338L111.519 15.2852H112.976V22.2334H111.65V17.1761L108.601 22.2334H107.131V15.2852H108.457V20.338ZM113.932 16.4523V15.2852H119.795V16.4523H117.529V22.2334H116.208V16.4523H113.932ZM122.08 24.839C121.878 24.839 121.694 24.8224 121.528 24.7892C121.363 24.7591 121.239 24.7259 121.158 24.6897L121.483 23.5814C121.731 23.6478 121.951 23.6764 122.144 23.6674C122.337 23.6583 122.507 23.5859 122.655 23.4502C122.806 23.3145 122.938 23.0929 123.053 22.7853L123.22 22.3239L120.678 15.2852H122.126L123.885 20.6773H123.958L125.717 15.2852H127.169L124.306 23.1607C124.173 23.5226 124.004 23.8287 123.799 24.079C123.594 24.3323 123.35 24.5223 123.066 24.649C122.783 24.7756 122.454 24.839 122.08 24.839ZM128.051 16.4523V15.2852H133.914V16.4523H131.648V22.2334H130.327V16.4523H128.051Z" fill="white"/>
<path d="M81.7607 37.519L78.6485 33.3664H77.6624V37.519H76.2646V28.2548H77.6624V32.1677H78.1193L81.6205 28.2548H83.3259L79.6211 32.4029L83.4661 37.519H81.7607ZM87.0691 37.6593C86.4178 37.6593 85.8493 37.51 85.3638 37.2114C84.8782 36.9129 84.5013 36.4952 84.2329 35.9584C83.9645 35.4216 83.8303 34.7944 83.8303 34.0766C83.8303 33.3559 83.9645 32.7256 84.2329 32.1858C84.5013 31.646 84.8782 31.2268 85.3638 30.9282C85.8493 30.6297 86.4178 30.4804 87.0691 30.4804C87.7205 30.4804 88.289 30.6297 88.7745 30.9282C89.2601 31.2268 89.637 31.646 89.9054 32.1858C90.1738 32.7256 90.308 33.3559 90.308 34.0766C90.308 34.7944 90.1738 35.4216 89.9054 35.9584C89.637 36.4952 89.2601 36.9129 88.7745 37.2114C88.289 37.51 87.7205 37.6593 87.0691 37.6593ZM87.0737 36.5239C87.4959 36.5239 87.8457 36.4123 88.1231 36.1891C88.4006 35.966 88.6056 35.6689 88.7383 35.298C88.874 34.927 88.9419 34.5184 88.9419 34.0721C88.9419 33.6288 88.874 33.2217 88.7383 32.8507C88.6056 32.4768 88.4006 32.1767 88.1231 31.9505C87.8457 31.7244 87.4959 31.6113 87.0737 31.6113C86.6485 31.6113 86.2956 31.7244 86.0152 31.9505C85.7377 32.1767 85.5311 32.4768 85.3954 32.8507C85.2627 33.2217 85.1964 33.6288 85.1964 34.0721C85.1964 34.5184 85.2627 34.927 85.3954 35.298C85.5311 35.6689 85.7377 35.966 86.0152 36.1891C86.2956 36.4123 86.6485 36.5239 87.0737 36.5239ZM91.8177 40.1246V30.5709H93.1386V31.6972H93.2517C93.3301 31.5525 93.4432 31.3851 93.591 31.1951C93.7388 31.0051 93.9438 30.8393 94.2062 30.6975C94.4686 30.5528 94.8154 30.4804 95.2466 30.4804C95.8075 30.4804 96.3081 30.6221 96.7484 30.9056C97.1887 31.1891 97.534 31.5977 97.7843 32.1315C98.0376 32.6653 98.1643 33.3076 98.1643 34.0585C98.1643 34.8094 98.0391 35.4533 97.7888 35.9901C97.5385 36.5239 97.1948 36.9355 96.7575 37.225C96.3202 37.5115 95.8211 37.6547 95.2602 37.6547C94.838 37.6547 94.4927 37.5839 94.2243 37.4421C93.9589 37.3004 93.7508 37.1345 93.6 36.9446C93.4492 36.7546 93.3331 36.5857 93.2517 36.4379H93.1703V40.1246H91.8177ZM93.1432 34.045C93.1432 34.5335 93.214 34.9617 93.3558 35.3296C93.4975 35.6976 93.7026 35.9856 93.971 36.1936C94.2394 36.3987 94.5681 36.5012 94.9571 36.5012C95.3612 36.5012 95.699 36.3942 95.9704 36.1801C96.2418 35.9629 96.4469 35.6689 96.5856 35.298C96.7273 34.927 96.7982 34.5094 96.7982 34.045C96.7982 33.5866 96.7288 33.1749 96.5901 32.81C96.4544 32.4451 96.2493 32.1571 95.9749 31.946C95.7035 31.7349 95.3642 31.6294 94.9571 31.6294C94.5651 31.6294 94.2333 31.7304 93.9619 31.9324C93.6935 32.1345 93.49 32.4165 93.3512 32.7784C93.2125 33.1402 93.1432 33.5624 93.1432 34.045ZM99.6797 37.519V30.5709H105.348V37.519H104.022V31.7379H100.996V37.519H99.6797ZM110.083 37.6593C109.431 37.6593 108.863 37.51 108.377 37.2114C107.892 36.9129 107.515 36.4952 107.246 35.9584C106.978 35.4216 106.844 34.7944 106.844 34.0766C106.844 33.3559 106.978 32.7256 107.246 32.1858C107.515 31.646 107.892 31.2268 108.377 30.9282C108.863 30.6297 109.431 30.4804 110.083 30.4804C110.734 30.4804 111.303 30.6297 111.788 30.9282C112.274 31.2268 112.651 31.646 112.919 32.1858C113.187 32.7256 113.322 33.3559 113.322 34.0766C113.322 34.7944 113.187 35.4216 112.919 35.9584C112.651 36.4952 112.274 36.9129 111.788 37.2114C111.303 37.51 110.734 37.6593 110.083 37.6593ZM110.087 36.5239C110.509 36.5239 110.859 36.4123 111.137 36.1891C111.414 35.966 111.619 35.6689 111.752 35.298C111.888 34.927 111.955 34.5184 111.955 34.0721C111.955 33.6288 111.888 33.2217 111.752 32.8507C111.619 32.4768 111.414 32.1767 111.137 31.9505C110.859 31.7244 110.509 31.6113 110.087 31.6113C109.662 31.6113 109.309 31.7244 109.029 31.9505C108.751 32.1767 108.545 32.4768 108.409 32.8507C108.276 33.2217 108.21 33.6288 108.21 34.0721C108.21 34.5184 108.276 34.927 108.409 35.298C108.545 35.6689 108.751 35.966 109.029 36.1891C109.309 36.4123 109.662 36.5239 110.087 36.5239ZM114.831 40.1246V30.5709H116.152V31.6972H116.265C116.344 31.5525 116.457 31.3851 116.605 31.1951C116.752 31.0051 116.957 30.8393 117.22 30.6975C117.482 30.5528 117.829 30.4804 118.26 30.4804C118.821 30.4804 119.322 30.6221 119.762 30.9056C120.202 31.1891 120.548 31.5977 120.798 32.1315C121.051 32.6653 121.178 33.3076 121.178 34.0585C121.178 34.8094 121.053 35.4533 120.802 35.9901C120.552 36.5239 120.208 36.9355 119.771 37.225C119.334 37.5115 118.835 37.6547 118.274 37.6547C117.852 37.6547 117.506 37.5839 117.238 37.4421C116.972 37.3004 116.764 37.1345 116.614 36.9446C116.463 36.7546 116.347 36.5857 116.265 36.4379H116.184V40.1246H114.831ZM116.157 34.045C116.157 34.5335 116.228 34.9617 116.369 35.3296C116.511 35.6976 116.716 35.9856 116.985 36.1936C117.253 36.3987 117.582 36.5012 117.971 36.5012C118.375 36.5012 118.713 36.3942 118.984 36.1801C119.255 35.9629 119.46 35.6689 119.599 35.298C119.741 34.927 119.812 34.5094 119.812 34.045C119.812 33.5866 119.742 33.1749 119.604 32.81C119.468 32.4451 119.263 32.1571 118.988 31.946C118.717 31.7349 118.378 31.6294 117.971 31.6294C117.579 31.6294 117.247 31.7304 116.976 31.9324C116.707 32.1345 116.504 32.4165 116.365 32.7784C116.226 33.1402 116.157 33.5624 116.157 34.045ZM124.715 37.6728C124.275 37.6728 123.877 37.5914 123.521 37.4286C123.165 37.2627 122.883 37.023 122.675 36.7093C122.47 36.3957 122.368 36.0112 122.368 35.5558C122.368 35.1638 122.443 34.8411 122.594 34.5878C122.745 34.3345 122.948 34.1339 123.204 33.9861C123.461 33.8384 123.747 33.7268 124.064 33.6514C124.381 33.576 124.703 33.5187 125.032 33.4795C125.448 33.4313 125.786 33.3921 126.045 33.3619C126.305 33.3287 126.493 33.2759 126.611 33.2036C126.728 33.1312 126.787 33.0136 126.787 32.8507V32.8191C126.787 32.424 126.676 32.1179 126.452 31.9008C126.232 31.6837 125.904 31.5751 125.466 31.5751C125.011 31.5751 124.652 31.6761 124.39 31.8782C124.13 32.0772 123.951 32.2989 123.851 32.5431L122.58 32.2536C122.731 31.8314 122.951 31.4906 123.241 31.2313C123.533 30.9689 123.869 30.7789 124.249 30.6613C124.629 30.5407 125.029 30.4804 125.448 30.4804C125.726 30.4804 126.02 30.5136 126.33 30.5799C126.644 30.6432 126.936 30.7608 127.208 30.9327C127.482 31.1046 127.707 31.3504 127.882 31.6701C128.057 31.9867 128.144 32.3984 128.144 32.905V37.519H126.823V36.5691H126.769C126.682 36.744 126.55 36.9159 126.375 37.0848C126.201 37.2537 125.976 37.3939 125.701 37.5055C125.427 37.6171 125.098 37.6728 124.715 37.6728ZM125.009 36.5872C125.383 36.5872 125.703 36.5133 125.968 36.3655C126.237 36.2178 126.44 36.0248 126.579 35.7865C126.721 35.5453 126.792 35.2874 126.792 35.013V34.1173C126.743 34.1656 126.65 34.2108 126.511 34.253C126.375 34.2922 126.22 34.3269 126.045 34.3571C125.87 34.3842 125.7 34.4099 125.534 34.434C125.368 34.4551 125.23 34.4732 125.118 34.4883C124.856 34.5214 124.616 34.5772 124.399 34.6556C124.185 34.734 124.013 34.8471 123.883 34.9949C123.756 35.1397 123.693 35.3327 123.693 35.5739C123.693 35.9087 123.817 36.162 124.064 36.3339C124.311 36.5028 124.626 36.5872 125.009 36.5872ZM129.084 31.7379V30.5709H134.946V31.7379H132.68V37.519H131.359V31.7379H129.084ZM137.702 35.6237L140.765 30.5709H142.221V37.519H140.896V32.4617L137.847 37.519H136.377V30.5709H137.702V35.6237ZM144.04 37.519V30.5709H146.921C147.706 30.5709 148.327 30.7382 148.785 31.073C149.244 31.4047 149.473 31.8555 149.473 32.4255C149.473 32.8326 149.343 33.1553 149.084 33.3936C148.824 33.6318 148.481 33.7916 148.052 33.8731C148.363 33.9092 148.648 34.0027 148.907 34.1535C149.167 34.3013 149.375 34.5003 149.532 34.7506C149.691 35.0009 149.771 35.2995 149.771 35.6463C149.771 36.0142 149.676 36.3399 149.486 36.6234C149.296 36.9038 149.02 37.124 148.659 37.2838C148.3 37.4406 147.867 37.519 147.36 37.519H144.04ZM145.311 36.3882H147.36C147.695 36.3882 147.957 36.3082 148.147 36.1484C148.337 35.9886 148.432 35.7714 148.432 35.497C148.432 35.1743 148.337 34.921 148.147 34.7371C147.957 34.5501 147.695 34.4566 147.36 34.4566H145.311V36.3882ZM145.311 33.4659H146.935C147.188 33.4659 147.405 33.4297 147.586 33.3574C147.77 33.285 147.911 33.1825 148.007 33.0498C148.107 32.9141 148.156 32.7542 148.156 32.5703C148.156 32.3019 148.046 32.0923 147.826 31.9415C147.606 31.7907 147.304 31.7153 146.921 31.7153H145.311V33.4659ZM155.964 33.4614V34.633H152.2V33.4614H155.964ZM152.58 30.5709V37.519H151.255V30.5709H152.58ZM156.909 30.5709V37.519H155.589V30.5709H156.909ZM159.737 32.9593H161.754C162.605 32.9593 163.259 33.1704 163.717 33.5926C164.176 34.0148 164.405 34.5591 164.405 35.2256C164.405 35.6599 164.302 36.0504 164.097 36.3972C163.892 36.744 163.592 37.0184 163.197 37.2205C162.802 37.4195 162.321 37.519 161.754 37.519H158.719V30.5709H160.044V36.352H161.754C162.143 36.352 162.463 36.2509 162.713 36.0489C162.964 35.8438 163.089 35.583 163.089 35.2663C163.089 34.9316 162.964 34.6586 162.713 34.4475C162.463 34.2334 162.143 34.1264 161.754 34.1264H159.737V32.9593ZM165.391 37.519V30.5709H166.744V37.519H165.391ZM169.626 30.5709L171.16 33.2759L172.707 30.5709H174.186L172.019 34.045L174.204 37.519H172.725L171.16 34.9225L169.599 37.519H168.115L170.278 34.045L168.143 30.5709H169.626Z" fill="white"/>
<path d="M75.8077 44.7442V43.5409H82.9776V44.7442H80.087V52.8052H78.6938V44.7442H75.8077ZM86.4404 52.9454C85.7558 52.9454 85.1662 52.7991 84.6717 52.5066C84.1801 52.2111 83.8001 51.7964 83.5317 51.2626C83.2663 50.7258 83.1336 50.0971 83.1336 49.3763C83.1336 48.6646 83.2663 48.0373 83.5317 47.4945C83.8001 46.9517 84.1741 46.528 84.6536 46.2234C85.1361 45.9188 85.7 45.7665 86.3454 45.7665C86.7374 45.7665 87.1174 45.8314 87.4853 45.961C87.8532 46.0907 88.1834 46.2943 88.476 46.5717C88.7685 46.8492 88.9992 47.2095 89.1681 47.6528C89.337 48.0931 89.4214 48.6284 89.4214 49.2587V49.7382H83.8981V48.7249H88.096C88.096 48.3691 88.0236 48.0539 87.8789 47.7795C87.7341 47.5021 87.5305 47.2834 87.2682 47.1236C87.0088 46.9638 86.7042 46.8838 86.3544 46.8838C85.9744 46.8838 85.6427 46.9773 85.3592 47.1643C85.0788 47.3483 84.8616 47.5895 84.7078 47.8881C84.5571 48.1836 84.4817 48.5048 84.4817 48.8516V49.6432C84.4817 50.1076 84.5631 50.5027 84.7259 50.8284C84.8918 51.1541 85.1225 51.4029 85.418 51.5748C85.7136 51.7436 86.0589 51.8281 86.4539 51.8281C86.7103 51.8281 86.944 51.7919 87.1551 51.7195C87.3662 51.6441 87.5486 51.5325 87.7024 51.3848C87.8562 51.237 87.9739 51.0546 88.0553 50.8374L89.3354 51.0681C89.2329 51.4451 89.049 51.7753 88.7836 52.0588C88.5212 52.3392 88.191 52.5579 87.7929 52.7147C87.3979 52.8685 86.947 52.9454 86.4404 52.9454ZM91.8279 45.857L93.3614 48.5621L94.9085 45.857H96.3877L94.2209 49.3311L96.4058 52.8052H94.9266L93.3614 50.2087L91.8008 52.8052H90.3171L92.4793 49.3311L90.3442 45.857H91.8279ZM102.485 48.7475V49.9191H98.7218V48.7475H102.485ZM99.1018 45.857V52.8052H97.7764V45.857H99.1018ZM103.431 45.857V52.8052H102.11V45.857H103.431ZM108.167 52.9454C107.516 52.9454 106.947 52.7961 106.462 52.4976C105.976 52.199 105.599 51.7813 105.331 51.2445C105.062 50.7078 104.928 50.0805 104.928 49.3627C104.928 48.642 105.062 48.0117 105.331 47.4719C105.599 46.9321 105.976 46.5129 106.462 46.2144C106.947 45.9158 107.516 45.7665 108.167 45.7665C108.818 45.7665 109.387 45.9158 109.872 46.2144C110.358 46.5129 110.735 46.9321 111.003 47.4719C111.272 48.0117 111.406 48.642 111.406 49.3627C111.406 50.0805 111.272 50.7078 111.003 51.2445C110.735 51.7813 110.358 52.199 109.872 52.4976C109.387 52.7961 108.818 52.9454 108.167 52.9454ZM108.172 51.81C108.594 51.81 108.944 51.6984 109.221 51.4752C109.498 51.2521 109.704 50.955 109.836 50.5841C109.972 50.2132 110.04 49.8045 110.04 49.3582C110.04 48.9149 109.972 48.5078 109.836 48.1369C109.704 47.7629 109.498 47.4629 109.221 47.2367C108.944 47.0105 108.594 46.8974 108.172 46.8974C107.746 46.8974 107.393 47.0105 107.113 47.2367C106.836 47.4629 106.629 47.7629 106.493 48.1369C106.361 48.5078 106.294 48.9149 106.294 49.3582C106.294 49.8045 106.361 50.2132 106.493 50.5841C106.629 50.955 106.836 51.2521 107.113 51.4752C107.393 51.6984 107.746 51.81 108.172 51.81ZM112.368 52.8052L112.364 51.6336H112.613C112.806 51.6336 112.967 51.5929 113.097 51.5114C113.229 51.427 113.338 51.2853 113.422 51.0862C113.507 50.8872 113.572 50.6128 113.617 50.2629C113.662 49.9101 113.695 49.4668 113.716 48.933L113.838 45.857H118.688V52.8052H117.362V47.0241H115.091L114.983 49.3854C114.956 49.9584 114.897 50.459 114.806 50.8872C114.719 51.3154 114.591 51.6728 114.422 51.9593C114.253 52.2427 114.036 52.4554 113.771 52.5971C113.505 52.7358 113.183 52.8052 112.803 52.8052H112.368ZM123.418 52.9454C122.767 52.9454 122.198 52.7961 121.713 52.4976C121.227 52.199 120.85 51.7813 120.582 51.2445C120.314 50.7078 120.179 50.0805 120.179 49.3627C120.179 48.642 120.314 48.0117 120.582 47.4719C120.85 46.9321 121.227 46.5129 121.713 46.2144C122.198 45.9158 122.767 45.7665 123.418 45.7665C124.07 45.7665 124.638 45.9158 125.124 46.2144C125.609 46.5129 125.986 46.9321 126.254 47.4719C126.523 48.0117 126.657 48.642 126.657 49.3627C126.657 50.0805 126.523 50.7078 126.254 51.2445C125.986 51.7813 125.609 52.199 125.124 52.4976C124.638 52.7961 124.07 52.9454 123.418 52.9454ZM123.423 51.81C123.845 51.81 124.195 51.6984 124.472 51.4752C124.75 51.2521 124.955 50.955 125.087 50.5841C125.223 50.2132 125.291 49.8045 125.291 49.3582C125.291 48.9149 125.223 48.5078 125.087 48.1369C124.955 47.7629 124.75 47.4629 124.472 47.2367C124.195 47.0105 123.845 46.8974 123.423 46.8974C122.998 46.8974 122.645 47.0105 122.364 47.2367C122.087 47.4629 121.88 47.7629 121.744 48.1369C121.612 48.5078 121.545 48.9149 121.545 49.3582C121.545 49.8045 121.612 50.2132 121.744 50.5841C121.88 50.955 122.087 51.2521 122.364 51.4752C122.645 51.6984 122.998 51.81 123.423 51.81ZM132.609 45.857V47.0241H129.501V52.8052H128.167V45.857H132.609ZM135.364 50.9098L138.426 45.857H139.883V52.8052H138.557V47.7478L135.509 52.8052H134.038V45.857H135.364V50.9098ZM143.027 50.9098L146.089 45.857H147.546V52.8052H146.22V47.7478L143.171 52.8052H141.701V45.857H143.027V50.9098ZM145.51 43.5047H146.623C146.623 44.0144 146.442 44.4291 146.08 44.7487C145.721 45.0654 145.236 45.2237 144.623 45.2237C144.014 45.2237 143.53 45.0654 143.171 44.7487C142.813 44.4291 142.633 44.0144 142.633 43.5047H143.741C143.741 43.7309 143.808 43.9315 143.94 44.1064C144.073 44.2783 144.301 44.3642 144.623 44.3642C144.94 44.3642 145.166 44.2783 145.302 44.1064C145.441 43.9345 145.51 43.7339 145.51 43.5047Z" fill="white"/>
<path d="M36.777 47.0864C36.6817 47.0864 36.5864 47.0618 36.4993 47.0125L30.8123 43.7294C30.6332 43.6259 30.533 43.4386 30.533 43.2463C30.533 43.151 30.5576 43.0557 30.6069 42.9686C30.7614 42.7024 31.1015 42.612 31.3677 42.7649L37.0547 46.0479C37.2338 46.1514 37.3324 46.3388 37.3324 46.531C37.3324 46.6263 37.3078 46.7216 37.2585 46.8087C37.155 46.9878 36.9676 47.0864 36.7754 47.0864H36.777Z" fill="white"/>
<path d="M19.7159 37.2356C19.6206 37.2356 19.5253 37.2109 19.4382 37.1616L13.7512 33.8786C13.5885 33.7849 13.4916 33.6222 13.4752 33.4497V33.4464C13.4752 33.4464 13.4752 33.4448 13.4752 33.4431C13.4752 33.4431 13.4752 33.4431 13.4752 33.4415C13.4669 33.3314 13.49 33.2197 13.5475 33.1194C13.5606 33.0964 13.5754 33.0734 13.5918 33.0537C13.6904 32.9288 13.8334 32.8565 13.9845 32.8434C14.0914 32.8368 14.2064 32.8582 14.3083 32.9157L19.9953 36.1987C20.1744 36.3022 20.273 36.4896 20.273 36.6818C20.273 36.7771 20.2483 36.8724 20.199 36.9595C20.0955 37.1386 19.9082 37.2372 19.7159 37.2372V37.2356Z" fill="white"/>
<path d="M53.8381 37.2356C53.7428 37.2356 53.6475 37.2109 53.5604 37.1616L47.8734 33.8786C47.8225 33.849 47.7764 33.8112 47.7387 33.7701C47.7387 33.7701 47.7387 33.7701 47.7387 33.7685C47.6844 33.7044 47.645 33.6288 47.6236 33.5483C47.6236 33.5483 47.6236 33.5483 47.6236 33.5466V33.545C47.6236 33.545 47.6236 33.545 47.6236 33.5417C47.6236 33.5417 47.6236 33.5417 47.6236 33.5401V33.5384C47.5924 33.4053 47.6105 33.2607 47.6844 33.1342C47.7222 33.0701 47.7682 33.0175 47.8225 32.9748C47.995 32.8384 48.2415 32.8154 48.4436 32.9321L54.1306 36.2152C54.3097 36.3187 54.4099 36.506 54.4083 36.6999C54.4083 36.7936 54.3836 36.8889 54.3344 36.9776C54.2308 37.1567 54.0435 37.2553 53.8513 37.2553L53.8381 37.2356Z" fill="white"/>
<path d="M14.3066 39.4791L13.7499 40.4441L19.4375 43.7252L19.9942 42.7602L14.3066 39.4791Z" fill="white"/>
<path d="M25.4046 47.0864C25.2124 47.0864 25.025 46.9862 24.9215 46.8087C24.8722 46.7216 24.8476 46.6263 24.8476 46.5327C24.8476 46.347 24.9396 46.1646 25.1072 46.0594C25.1072 46.0594 25.1154 46.0545 25.1203 46.0512C25.1203 46.0512 25.1236 46.0512 25.1253 46.0479L30.8123 42.7649C31.0785 42.6104 31.4186 42.7024 31.5731 42.9686C31.7276 43.2348 31.6355 43.5749 31.3693 43.7294L25.6823 47.0125C25.5952 47.0634 25.4983 47.0864 25.4046 47.0864Z" fill="white"/>
<path d="M25.403 39.9616L25.4049 39.9635V39.9616H25.403Z" fill="white"/>
<path d="M19.7159 56.9372C19.619 56.9372 19.5237 56.9126 19.4382 56.8633C19.2657 56.7631 19.1605 56.5807 19.1605 56.3802V43.2463C19.1605 43.0475 19.2674 42.8634 19.4382 42.7632L25.1253 39.4802C25.2978 39.3799 25.5098 39.3799 25.6823 39.4802L31.3693 42.7632C31.5419 42.8634 31.647 43.0458 31.647 43.2463C31.647 43.4468 31.5402 43.6292 31.3693 43.7294L25.9617 46.8514V53.0971C25.9617 53.296 25.8548 53.48 25.684 53.5802L19.9969 56.8633C19.9115 56.9126 19.8145 56.9372 19.7192 56.9372H19.7159ZM20.273 43.5684V55.4157L24.8459 52.7751V46.5294C24.8459 46.3306 24.9527 46.1465 25.1236 46.0463L29.9743 43.2447L25.4013 40.6041L20.2713 43.5651L20.273 43.5684Z" fill="white"/>
<path d="M31.3691 49.3288L30.8117 50.2935L36.4998 53.5802L37.0572 52.6155L31.3691 49.3288Z" fill="white"/>
<path d="M36.777 47.0881C36.6801 47.0881 36.5848 47.0634 36.4993 47.0141C36.3268 46.9139 36.2216 46.7315 36.2216 46.531V33.3955C36.2216 33.1967 36.3284 33.0126 36.4993 32.9124L47.875 26.3463C48.0476 26.246 48.2595 26.246 48.4321 26.3463C48.6046 26.4465 48.7098 26.6289 48.7098 26.8293V39.6428L54.1191 42.7632L53.5621 43.7278L48.1527 40.6074L37.0564 47.0141C36.9709 47.0634 36.874 47.0897 36.7787 47.0897L36.777 47.0881ZM37.3341 33.7175V45.5648L47.5957 39.6412V27.7939L37.3341 33.7175Z" fill="white"/>
<path d="M53.8398 56.9372C53.7428 56.9372 53.6475 56.9126 53.5604 56.8633C53.3879 56.7631 53.2827 56.5807 53.2827 56.3802V43.2463C53.2827 43.0475 53.3895 42.8634 53.5604 42.7632L64.9345 36.1954C65.107 36.0952 65.319 36.0952 65.4915 36.1954C65.6641 36.2957 65.7692 36.4781 65.7692 36.6785V49.8124C65.7692 50.0113 65.6624 50.1953 65.4915 50.2955L54.1175 56.8617C54.032 56.9109 53.9351 56.9356 53.8398 56.9356V56.9372ZM54.3968 43.5684V55.4157L64.6568 49.492V37.6447L54.3968 43.5684Z" fill="white"/>
<path d="M36.7787 66.7881C36.6817 66.7881 36.5864 66.7634 36.501 66.7141C36.3284 66.6139 36.2233 66.4315 36.2233 66.231V53.0971C36.2233 52.8983 36.3301 52.7143 36.501 52.6141L47.875 46.0463C48.0476 45.946 48.2595 45.946 48.4321 46.0463C48.6046 46.1465 48.7098 46.3289 48.7098 46.5294V59.6633C48.7098 59.8621 48.603 60.0461 48.4321 60.1464L37.058 66.7125C36.9726 66.7618 36.8756 66.7864 36.7803 66.7864L36.7787 66.7881ZM37.3357 53.4176V65.2649L47.5957 59.3412V47.4939L37.3357 53.4176Z" fill="white"/>
<path d="M25.4046 20.8186C25.2124 20.8186 25.025 20.7184 24.9215 20.5409C24.7671 20.2747 24.8591 19.9346 25.1253 19.7801L30.8123 16.4971C31.0785 16.3426 31.4186 16.4346 31.5731 16.7008C31.6224 16.7879 31.647 16.8832 31.647 16.9769C31.647 17.1625 31.555 17.3449 31.3874 17.4501C31.3874 17.4501 31.3792 17.455 31.3743 17.4583C31.3743 17.4583 31.371 17.46 31.3693 17.4616L25.6823 20.7447C25.5952 20.7956 25.4983 20.8186 25.4046 20.8186Z" fill="white"/>
<path d="M14.3062 19.7775L13.7488 20.7421L19.4369 24.0288L19.9943 23.0642L14.3062 19.7775Z" fill="white"/>
<path d="M42.4657 17.5339C42.2735 17.5339 42.0861 17.4337 41.9826 17.2562C41.9333 17.1691 41.9087 17.0738 41.9087 16.9802C41.9087 16.7928 42.0007 16.6104 42.1699 16.5053C42.1732 16.5036 42.1781 16.5004 42.1814 16.4987C42.1814 16.4987 42.1847 16.4971 42.1831 16.4987C42.1831 16.4987 42.1831 16.4987 42.1847 16.4987L47.8717 13.2156C48.1363 13.0612 48.4781 13.1532 48.6325 13.4194C48.787 13.6856 48.695 14.0257 48.4288 14.1802L42.7418 17.4633C42.6547 17.5142 42.5577 17.5372 42.4641 17.5372L42.4657 17.5339Z" fill="white"/>
<path d="M25.4046 27.3847C25.2124 27.3847 25.025 27.2845 24.9215 27.107C24.8722 27.02 24.8476 26.9247 24.8476 26.831C24.8476 26.6437 24.9412 26.4613 25.1088 26.3561C25.1088 26.3561 25.1088 26.3561 25.1121 26.3561C25.1154 26.3545 25.1203 26.3512 25.1236 26.3495C25.1236 26.3495 25.1236 26.3495 25.1253 26.3495L30.8123 23.0665C31.0785 22.912 31.4186 23.004 31.5731 23.2702C31.7276 23.5364 31.6355 23.8766 31.3693 24.031L25.6823 27.3141C25.5952 27.365 25.4983 27.388 25.4046 27.388V27.3847Z" fill="white"/>
<path d="M19.7159 37.2356C19.619 37.2356 19.5237 37.2109 19.4382 37.1616C19.2657 37.0614 19.1605 36.879 19.1605 36.6785V23.5446C19.1605 23.3458 19.2674 23.1618 19.4382 23.0615L30.8123 16.4954C30.9848 16.3952 31.1968 16.3952 31.3693 16.4954C31.5419 16.5957 31.647 16.778 31.647 16.9785V23.5446C31.647 23.7435 31.5419 23.9275 31.3693 24.0277L25.96 27.1498V33.3955C25.96 33.5943 25.8532 33.7783 25.6823 33.8786L19.9953 37.1616C19.9098 37.2109 19.8129 37.2356 19.7176 37.2356H19.7159ZM20.273 23.8667V35.714L24.8459 33.0734V26.8277C24.8459 26.6289 24.9527 26.4448 25.1236 26.3446L30.5313 23.2226V17.9414L20.2713 23.8651L20.273 23.8667Z" fill="white"/>
<path d="M31.3681 29.6341L30.8114 30.5991L36.499 33.8802L37.0557 32.9152L31.3681 29.6341Z" fill="white"/>
<path d="M31.3671 9.92936L30.8104 10.8944L36.498 14.1754L37.0547 13.2104L31.3671 9.92936Z" fill="white"/>
<path d="M42.4657 24.1017C42.3688 24.1017 42.2734 24.077 42.1864 24.0277L36.4993 20.7447C36.3268 20.6444 36.2216 20.462 36.2216 20.2616V13.6954C36.2216 13.4966 36.3284 13.3126 36.4993 13.2124L47.8734 6.64459C48.0459 6.54435 48.2579 6.54435 48.4304 6.64459C48.603 6.74482 48.7081 6.92721 48.7081 7.12768V13.6954C48.7081 13.8943 48.6013 14.0783 48.4304 14.1785L43.0211 17.3006V23.5463C43.0211 23.7451 42.9143 23.9291 42.7434 24.0294C42.658 24.0787 42.561 24.1033 42.4657 24.1033V24.1017ZM37.3357 19.9395L41.9087 22.5801V16.9785C41.9087 16.7797 42.0155 16.5957 42.1864 16.4954L47.5957 13.3734V8.09223L37.3357 14.0159V19.9395Z" fill="white"/>
<path d="M48.4296 19.7773L47.8722 20.7419L53.559 24.0278L54.1163 23.0631L48.4296 19.7773Z" fill="white"/>
<path d="M53.8398 37.2356C53.7428 37.2356 53.6475 37.2109 53.5604 37.1616C53.3879 37.0614 53.2827 36.879 53.2827 36.6785V23.5446C53.2827 23.3458 53.3895 23.1618 53.5604 23.0615L64.9345 16.4954C65.107 16.3952 65.319 16.3952 65.4915 16.4954C65.6641 16.5957 65.7692 16.778 65.7692 16.9785V30.1124C65.7692 30.3112 65.6624 30.4953 65.4915 30.5955L54.1175 37.1616C54.032 37.2109 53.9351 37.2356 53.8398 37.2356ZM54.3968 23.8667V35.714L64.6568 29.7903V17.9431L54.3968 23.8667Z" fill="white"/>
<path d="M53.8398 56.9356C53.7428 56.9356 53.6475 56.911 53.5621 56.8617L47.875 53.5802C47.7025 53.48 47.5973 53.2976 47.5973 53.0971V46.5294H48.7114V52.7751L53.2844 55.414V43.5651L47.875 40.4447L48.4321 39.4802L54.1191 42.7616C54.2916 42.8618 54.3968 43.0442 54.3968 43.2447V56.3802C54.3968 56.579 54.29 56.7631 54.1191 56.8617C54.0337 56.911 53.9367 56.9372 53.8398 56.9372V56.9356Z" fill="white"/>
<path d="M47.8734 47.0125L42.1864 43.7261C42.0138 43.6259 41.9087 43.4435 41.9087 43.243C41.9087 43.0426 42.0155 42.8602 42.1864 42.7616L47.8734 39.4802L48.4304 40.4447L43.5781 43.243L48.4304 46.0463L47.8734 47.0108V47.0125Z" fill="white"/>
<path d="M31.09 24.1033C30.9931 24.1033 30.8977 24.0787 30.8123 24.0294C30.6398 23.9291 30.5346 23.7468 30.5346 23.5463V16.9785H31.6487V22.5801L36.2216 19.9379V14.0142L30.8123 10.8938L31.3693 9.92929L37.0564 13.2107C37.2289 13.3109 37.3357 13.4933 37.3357 13.6938V20.2616C37.3357 20.4604 37.2289 20.6444 37.0564 20.743L31.3693 24.0294C31.2839 24.0787 31.187 24.1033 31.0916 24.1033H31.09Z" fill="white"/>
<path d="M30.8107 17.4616L25.1236 14.1753C24.9511 14.075 24.8459 13.8926 24.8459 13.6938V7.12604C24.8459 6.92721 24.9527 6.74318 25.1236 6.64294C25.2962 6.54271 25.5081 6.54435 25.6807 6.64294L31.3677 9.9293L30.8107 10.8938L25.9584 8.09058V13.3717L31.3677 16.4971L30.8107 17.4616Z" fill="white"/>
<path d="M53.8398 43.8033C53.7428 43.8033 53.6475 43.7787 53.5604 43.7294L47.8734 40.4463C47.6894 40.3395 47.5826 40.1391 47.5957 39.9287V33.3971C47.5957 33.1983 47.7009 33.0143 47.8734 32.914C48.0459 32.8154 48.2579 32.8138 48.4304 32.914L53.8398 36.0361L59.2491 32.914C59.4216 32.8138 59.6336 32.8138 59.8061 32.914L65.4932 36.1971C65.6657 36.2973 65.7709 36.4797 65.7709 36.6802C65.7709 36.8806 65.6641 37.063 65.4932 37.1633L54.1191 43.731C54.0337 43.7803 53.9367 43.805 53.8414 43.805L53.8398 43.8033ZM48.7098 39.6412L53.8398 42.6038L64.0998 36.6802L59.5268 34.0396L54.1175 37.1616C53.9449 37.2619 53.733 37.2619 53.5604 37.1616L48.7081 34.36V39.6395L48.7098 39.6412Z" fill="white"/>
<path d="M13.7496 53.5802L8.0609 50.2939C7.88837 50.1937 7.7832 50.0113 7.7832 49.8108V36.6753C7.7832 36.4764 7.89001 36.2924 8.0609 36.1922C8.23343 36.0919 8.4454 36.0919 8.61794 36.1922L14.3099 39.4818L13.7446 40.4414L12.2789 39.5919L8.89728 37.6398V49.4887L14.3066 52.614L13.7496 53.5786V53.5802Z" fill="white"/>
<path d="M19.7143 56.9356C19.6174 56.9356 19.522 56.911 19.4366 56.8617L13.7496 53.5802L14.3066 52.6157L19.1589 55.414V43.5651L13.7496 40.4447L14.3066 39.4802L19.9936 42.7616C20.1662 42.8618 20.2713 43.0442 20.2713 43.2447V56.3802C20.2713 56.579 20.1645 56.7631 19.9936 56.8617C19.9082 56.911 19.8112 56.9372 19.7159 56.9372L19.7143 56.9356Z" fill="white"/>
<path d="M30.8107 63.4294L25.1236 60.148C24.9511 60.0478 24.8459 59.8654 24.8459 59.6649V46.5294C24.8459 46.3306 24.9527 46.1465 25.1236 46.0479C25.2962 45.9477 25.5081 45.9477 25.6807 46.0479L31.3677 49.3293L30.8107 50.2939L25.9584 47.4956V59.3445L31.3677 62.4649L30.8107 63.4294Z" fill="white"/>
<path d="M36.777 66.7897C36.6801 66.7897 36.5848 66.7651 36.4993 66.7141L30.8123 63.4278L31.3693 62.4632L36.2216 65.2665V53.4176L30.8123 50.2922L31.3693 49.3277L37.0564 52.614C37.2289 52.7143 37.3357 52.8967 37.3357 53.0955V66.231C37.3357 66.4299 37.2289 66.6139 37.0564 66.7141C36.9693 66.7634 36.874 66.7881 36.7787 66.7881L36.777 66.7897Z" fill="white"/>
<path d="M36.777 47.0881C36.6801 47.0881 36.5848 47.0634 36.4993 47.0125L25.1253 40.4447C24.9527 40.3445 24.8476 40.1621 24.8476 39.9616V26.8277C24.8476 26.6289 24.9544 26.4448 25.1253 26.3446C25.2978 26.2444 25.5098 26.246 25.6823 26.3446L37.0564 32.9107C37.2289 33.011 37.3357 33.1934 37.3357 33.3938V46.5294C37.3357 46.7282 37.2289 46.9122 37.0564 47.0125C36.9693 47.0618 36.874 47.0864 36.7787 47.0864L36.777 47.0881ZM25.96 39.6412L36.22 45.5648V33.7175L25.96 27.7939V39.6412Z" fill="white"/>
<path d="M19.7176 43.8017C19.5253 43.8017 19.338 43.7015 19.2345 43.524C19.08 43.2578 19.172 42.9177 19.4382 42.7632L20.4685 42.1684C20.7347 42.0139 21.0748 42.1059 21.2293 42.3721C21.3838 42.6383 21.2917 42.9785 21.0256 43.1329L19.9953 43.7278C19.9082 43.7787 19.8112 43.8017 19.7176 43.8017Z" fill="white"/>
<path d="M53.8398 43.8033C53.6475 43.8033 53.4602 43.7031 53.3567 43.5257C53.2022 43.2595 53.2942 42.9193 53.5604 42.7649L59.2475 39.4818C59.3345 39.4309 59.4298 39.4079 59.5235 39.4079H59.5252C59.7174 39.4079 59.9047 39.5081 60.0082 39.6855C60.1594 39.9468 60.074 40.2787 59.8193 40.4381C59.8143 40.4414 59.8094 40.4447 59.8045 40.448L54.1175 43.731C54.0304 43.782 53.9334 43.805 53.8398 43.805V43.8033Z" fill="white"/>
<path d="M36.7787 53.6542C36.5864 53.6542 36.3991 53.5539 36.2956 53.3765C36.1411 53.1103 36.2331 52.7702 36.4993 52.6157L42.1864 49.3326C42.4526 49.1782 42.7927 49.2702 42.9472 49.5364C43.1016 49.8026 43.0096 50.1427 42.7434 50.2972L37.0564 53.5802C36.9693 53.6312 36.8723 53.6542 36.7787 53.6542Z" fill="white"/>
<path d="M19.7143 37.2339C19.6174 37.2339 19.522 37.2093 19.4366 37.16L8.0609 30.5906C7.88837 30.4903 7.7832 30.308 7.7832 30.1091V16.9802C7.7832 16.7813 7.89001 16.5973 8.0609 16.4987C8.23343 16.3985 8.4454 16.3985 8.61794 16.4987L19.992 23.0665C20.1645 23.1667 20.2697 23.3491 20.2697 23.5479V36.6769C20.2697 36.8757 20.1629 37.0598 19.992 37.1583C19.9066 37.2076 19.8096 37.2339 19.7143 37.2339ZM8.89728 29.7871L19.1573 35.7107V23.8667L8.89728 17.9447V29.7887V29.7871Z" fill="white"/>
<path d="M42.4657 24.1017C42.1584 24.1017 41.9087 23.8519 41.9087 23.5446V16.9785C41.9087 16.7797 42.0155 16.5957 42.1864 16.4954C42.3589 16.3952 42.5709 16.3952 42.7434 16.4954L48.4304 19.7785C48.6966 19.9329 48.7886 20.2731 48.6342 20.5393C48.4797 20.8055 48.1379 20.8958 47.8734 20.743L43.0211 17.9414V23.543C43.0211 23.8503 42.7713 24.1 42.4641 24.1L42.4657 24.1017Z" fill="white"/>
<path d="M36.7787 14.2508C36.5864 14.2508 36.3991 14.1506 36.2956 13.9731C36.1411 13.707 36.2331 13.3668 36.4993 13.2124L42.1864 9.92929C42.4526 9.77484 42.7927 9.86685 42.9472 10.133C42.9965 10.2201 43.0211 10.3154 43.0211 10.4091C43.0211 10.5964 42.9291 10.7788 42.7598 10.884C42.7533 10.8873 42.7483 10.8906 42.7418 10.8955L37.0547 14.1785C36.9676 14.2295 36.8707 14.2525 36.777 14.2525L36.7787 14.2508Z" fill="white"/>
<path d="M19.7176 24.1017C19.5253 24.1017 19.338 24.0014 19.2345 23.824C19.08 23.5578 19.1721 23.2176 19.4382 23.0632L25.1253 19.7801C25.3915 19.6257 25.7316 19.7177 25.8861 19.9839C25.9354 20.071 25.96 20.1663 25.96 20.2599C25.96 20.4473 25.868 20.6297 25.6987 20.7348C25.6922 20.7381 25.6872 20.7414 25.6807 20.7463L19.9936 24.0294C19.9065 24.0803 19.8096 24.1033 19.7159 24.1033L19.7176 24.1017Z" fill="white"/>
<path d="M53.8398 24.1017C53.6475 24.1017 53.4602 24.0014 53.3567 23.824C53.3057 23.7369 53.2827 23.6399 53.2827 23.5463C53.2827 23.354 53.383 23.1667 53.5604 23.0632L59.2475 19.7801C59.5136 19.6257 59.8538 19.7177 60.0082 19.9839C60.0592 20.071 60.0822 20.1679 60.0822 20.2616C60.0822 20.4538 59.9819 20.6411 59.8045 20.7447L54.1175 24.0277C54.0304 24.0787 53.9334 24.1017 53.8398 24.1017Z" fill="white"/>
<path d="M36.7787 33.9525C36.5864 33.9525 36.3991 33.8523 36.2956 33.6748C36.2446 33.5877 36.2216 33.4908 36.2216 33.3971C36.2216 33.2049 36.3219 33.0175 36.4993 32.914L42.1864 29.631C42.4526 29.4765 42.7927 29.5685 42.9472 29.8347C42.9981 29.9218 43.0211 30.0188 43.0211 30.1124C43.0211 30.3047 42.9209 30.492 42.7434 30.5955L37.0564 33.8786C36.9693 33.9295 36.8723 33.9525 36.7787 33.9525Z" fill="white"/>
<path d="M25.4046 47.0864C25.2124 47.0864 25.025 46.9862 24.9215 46.8087C24.7671 46.5425 24.8591 46.2024 25.1253 46.0479L30.8123 42.7649C30.9816 42.6663 31.182 42.6696 31.3447 42.7517C31.4367 42.7994 31.5172 42.8717 31.5731 42.9686C31.7276 43.2348 31.6355 43.5749 31.3693 43.7294L25.6823 47.0125C25.5952 47.0634 25.4983 47.0864 25.4046 47.0864Z" fill="white"/>
<path d="M48.1527 47.0864C48.0574 47.0864 47.9621 47.0618 47.875 47.0125L42.188 43.7294C42.0089 43.6259 41.9103 43.4386 41.9103 43.2463C41.9103 43.151 41.935 43.0557 41.9843 42.9686C42.1387 42.7024 42.4789 42.612 42.745 42.7649L48.4321 46.0479C48.6112 46.1514 48.7098 46.3388 48.7098 46.531C48.7098 46.6263 48.6851 46.7216 48.6358 46.8087C48.5323 46.9878 48.345 47.0864 48.1527 47.0864Z" fill="white"/>
<path d="M47.8734 20.743L42.1864 17.4616C42.0138 17.3614 41.9087 17.179 41.9087 16.9802C41.9087 16.7813 42.0155 16.5973 42.1864 16.4971L53.5604 9.9293C53.733 9.82906 53.9449 9.82906 54.1175 9.9293L59.8045 13.2107L59.2475 14.1753L53.8381 11.0549L43.5781 16.9785L48.4304 19.7768L47.8734 20.7414V20.743Z" fill="white"/>
<path d="M36.777 33.9525C36.6801 33.9525 36.5848 33.9279 36.4993 33.8786L25.1253 27.3108C24.9527 27.2106 24.8476 27.0282 24.8476 26.8277C24.8476 26.6272 24.9544 26.4448 25.1253 26.3463L36.4993 19.7785C36.6719 19.6783 36.8838 19.6783 37.0564 19.7785L48.4321 26.3463C48.6046 26.4465 48.7098 26.6289 48.7098 26.8277C48.7098 27.0265 48.603 27.2106 48.4321 27.3108L37.0564 33.8786C36.9693 33.9279 36.874 33.9525 36.7787 33.9525L36.777 33.9525ZM26.517 26.8293L36.777 32.753L47.0387 26.8293L36.777 20.9041L26.517 26.8293Z" fill="white"/>
<path d="M30.8107 10.8938L25.1236 7.60749C24.9511 7.50726 24.8459 7.32486 24.8459 7.12439C24.8459 6.92393 24.9527 6.74154 25.1236 6.64294L36.4977 0.0751752C36.6702 -0.0250584 36.8822 -0.0250584 37.0547 0.0751752L42.7434 3.36152L42.1864 4.32607L36.777 1.20075L26.517 7.12604L31.3693 9.92929L30.8123 10.8938L30.8107 10.8938Z" fill="white"/>
<path d="M19.7143 24.1033C19.6174 24.1033 19.522 24.0787 19.4366 24.0294L8.0609 17.4616C7.88837 17.3614 7.7832 17.179 7.7832 16.9802C7.7832 16.7813 7.89001 16.5973 8.0609 16.4971L19.435 9.9293C19.6075 9.82906 19.8195 9.82906 19.992 9.9293L31.3661 16.4971C31.5386 16.5973 31.6438 16.7797 31.6438 16.9802C31.6438 17.1806 31.5369 17.363 31.3661 17.4616L19.992 24.0294C19.9066 24.0787 19.8096 24.1033 19.7143 24.1033ZM9.45431 16.9785L19.7143 22.9038L29.9743 16.9785L19.7143 11.0549L9.45431 16.9785Z" fill="white"/>
<path d="M36.777 14.2508C36.6801 14.2508 36.5848 14.2262 36.4993 14.1769L30.8123 10.8955L31.3693 9.93094L36.7787 13.0513L47.0403 7.12768L42.188 4.32935L42.745 3.36481L48.4321 6.64623C48.6046 6.74646 48.7098 6.92886 48.7098 7.12768C48.7098 7.3265 48.603 7.51054 48.4321 7.61077L37.0564 14.1785C36.9693 14.2278 36.874 14.2525 36.7787 14.2525L36.777 14.2508Z" fill="white"/>
<path d="M53.8398 24.1033C53.7428 24.1033 53.6475 24.0787 53.5621 24.0294L47.875 20.743L48.4321 19.7785L53.8414 22.9038L64.1014 16.9785L59.2491 14.1753L59.8061 13.2107L65.4932 16.4971C65.6657 16.5973 65.7709 16.7797 65.7709 16.9802C65.7709 17.1806 65.664 17.363 65.4932 17.4616L54.1191 24.0294C54.0337 24.0787 53.9367 24.1033 53.8398 24.1033Z" fill="white"/>
<path d="M19.7159 43.8017C19.619 43.8017 19.5237 43.7771 19.4382 43.7278L8.06419 37.16C7.89166 37.0598 7.78649 36.8774 7.78649 36.6769C7.78649 36.4764 7.8933 36.294 8.06419 36.1938L13.7512 32.9107C13.9238 32.8105 14.1357 32.8105 14.3083 32.9107L19.7159 36.0344L25.1253 32.9124C25.2978 32.8121 25.5098 32.8121 25.6823 32.9124C25.8549 33.0126 25.96 33.195 25.96 33.3955L25.96 39.9616C25.96 40.1604 25.8532 40.3445 25.6823 40.4447L19.9953 43.7278C19.9098 43.7771 19.8129 43.8017 19.7176 43.8017L19.7159 43.8017ZM9.45596 36.6769L19.7176 42.6022L24.8476 39.6412V34.36L19.9953 37.1616C19.8227 37.2619 19.6108 37.2619 19.4382 37.1616L14.0289 34.0396L9.45596 36.6802V36.6769Z" fill="white"/>
<path d="M47.8734 27.3108L42.1864 24.0294C42.0138 23.9291 41.9087 23.7468 41.9087 23.5463V16.9785C41.9087 16.7797 42.0155 16.5957 42.1864 16.4971C42.3589 16.3968 42.5709 16.3968 42.7434 16.4971L48.4304 19.7785L47.8734 20.743L43.0211 17.9447V23.2259L48.4304 26.3463L47.8734 27.3108Z" fill="white"/>
<path d="M53.8398 37.2339C53.7428 37.2339 53.6475 37.2093 53.5621 37.16L47.875 33.8786C47.7025 33.7783 47.5973 33.5959 47.5973 33.3955V26.8277H48.7114V33.0734L53.2844 35.7124V23.8683L47.875 20.743L48.4321 19.7785L54.1191 23.0648C54.2916 23.1651 54.3968 23.3475 54.3968 23.5463V36.6753C54.3968 36.8741 54.29 37.0581 54.1191 37.1567C54.0337 37.206 53.9367 37.2323 53.8398 37.2323V37.2339Z" fill="white"/>
<path d="M36.7787 53.6542C36.6817 53.6542 36.5864 53.6295 36.501 53.5802L25.1269 47.0125C24.9544 46.9122 24.8492 46.7298 24.8492 46.5294C24.8492 46.3289 24.956 46.1465 25.1269 46.0463L30.8139 42.7632C30.9865 42.663 31.1984 42.663 31.371 42.7632L36.7787 45.8869L42.188 42.7649C42.3605 42.6646 42.5725 42.6646 42.745 42.7649L48.4321 46.0479C48.6046 46.1482 48.7098 46.3305 48.7098 46.531C48.7098 46.7315 48.603 46.9139 48.4321 47.0141L37.058 53.5819C36.9726 53.6312 36.8756 53.6558 36.7803 53.6558L36.7787 53.6542ZM26.5187 46.5294L36.7787 52.453L47.0387 46.5294L42.4657 43.8888L37.0564 47.0108C36.8838 47.1111 36.6719 47.1111 36.4993 47.0108L31.09 43.8888L26.517 46.5294H26.5187Z" fill="white"/>
</g>
<defs>
<clipPath id="clip0_200_537">
<rect width="183" height="87.2862" fill="white"/>
</clipPath>
</defs>
</svg>
