<svg width="224" height="44" viewBox="0 0 224 44" fill="none" xmlns="http://www.w3.org/2000/svg">
<g clip-path="url(#clip0_200_377)">
<path d="M183.497 10.0874C184.512 10.1789 185.535 10.0601 186.503 9.73826C187.472 9.41638 188.365 8.89815 189.129 8.21517C189.894 7.53219 190.512 6.69876 190.948 5.76571C191.384 4.83266 191.627 3.81953 191.663 2.78809H187.319C186.87 4.55661 185.819 5.44086 183.497 5.44086C181.174 5.44086 179.975 4.55661 179.602 2.78809H175.258C175.302 3.82341 175.553 4.83888 175.996 5.77307C176.439 6.70726 177.065 7.54074 177.835 8.22309C178.605 8.90545 179.504 9.42248 180.477 9.74293C181.45 10.0634 182.478 10.1806 183.497 10.0874Z" fill="white"/>
<path d="M94.3103 30.4837V12.373H88.8389V38.7715H94.5348L105.545 20.3564V38.7715H111.012V12.373H105.321L94.3103 30.4837Z" fill="white"/>
<path d="M71.6285 12.5942C69.6134 12.5017 67.6133 12.9845 65.8561 13.9874C64.0989 14.9904 62.6554 16.4732 61.6902 18.2668C61.9614 12.2855 63.1691 8.72761 70.2043 7.80164L81.1429 6.32509L80.6937 0.427246L69.3059 1.9747C59.4906 3.30109 56.7188 10.7506 56.7188 22.4712C56.7188 32.7194 61.4401 39.2804 70.2043 39.2804C78.7441 39.2804 83.3891 32.7903 83.3891 25.199C83.4939 23.575 83.2668 21.9465 82.722 20.4153C82.1771 18.8842 81.3262 17.4833 80.2224 16.3003C79.1186 15.1173 77.7857 14.1776 76.307 13.5399C74.8283 12.9022 73.2356 12.5803 71.6285 12.5942ZM70.2043 33.4618C65.2587 33.4618 62.3385 29.9248 62.3385 24.6151V21.8872C63.3854 19.8226 66.1614 18.2 70.2043 18.2C74.4763 18.2 77.7694 20.1896 77.7694 25.2032C77.7694 30.2168 75.1502 33.4618 70.2043 33.4618Z" fill="white"/>
<path d="M217.639 12.373V22.2542H206.996V12.373H201.53V38.7715H206.996V27.7099H217.639V38.7715H223.105V12.373H217.639Z" fill="white"/>
<path d="M177.953 30.4837V12.373H172.482V38.7715H178.178L189.188 20.3564V38.7715H194.66V12.373H188.964L177.953 30.4837Z" fill="white"/>
<path d="M120.853 28.5235C120.256 31.4724 119.429 32.7279 117.781 32.7279C117.1 32.7535 116.419 32.6791 115.759 32.5068V38.6257C116.604 39.0151 117.528 39.1925 118.455 39.143C119.735 39.1715 120.992 38.7868 122.043 38.0445C123.093 37.3022 123.883 36.2407 124.299 35.0136C124.982 32.9363 125.41 30.7818 125.575 28.5986C125.94 25.0725 126.116 21.5288 126.1 17.9833H133.368V38.7759H138.836V12.3816H121.532C121.651 17.7714 121.425 23.1634 120.853 28.5235Z" fill="white"/>
<path d="M164.637 31.6183L164.714 21.149C164.79 14.5128 160.666 11.785 154.674 11.785C153.435 11.687 152.189 11.8388 151.008 12.2314C149.828 12.6241 148.736 13.2498 147.795 14.0725C146.855 14.8951 146.085 15.8984 145.53 17.0243C144.975 18.1501 144.646 19.3763 144.562 20.6317H149.804C150.105 18.2 152.05 17.3867 154.674 17.3867C157.361 17.3867 159.162 18.2 159.433 20.9154L152.728 23.5807C148.16 25.4243 144.714 27.4889 144.714 31.8393C144.714 36.3357 147.261 39.2137 152.355 39.2137C153.937 39.2522 155.495 38.8167 156.833 37.9619C158.172 37.107 159.231 35.8709 159.878 34.4087C160.145 37.587 162.285 38.9926 165.989 38.9926H167.49V33.904H167.04C165.311 33.904 164.637 33.2408 164.637 31.6183ZM154.373 33.6829C151.826 33.6829 149.952 33.0197 149.952 30.734C149.952 28.7444 151.525 27.8602 154.224 26.7507L159.446 24.6151L159.391 31.7642C158.738 32.4284 157.953 32.9433 157.087 33.2743C156.221 33.6052 155.296 33.7446 154.373 33.6829Z" fill="white"/>
<path d="M31.3617 37.8206C23.9408 42.0334 15.8927 42.7883 10.752 40.2648C14.1122 42.2299 17.9188 43.2776 21.799 43.3054C25.6792 43.3332 29.5001 42.3401 32.8874 40.4233C36.2285 38.56 39.0089 35.8151 40.9333 32.4803C42.8578 29.1454 43.8544 25.345 43.8173 21.4827C43.4699 27.1219 38.7784 33.6037 31.3617 37.8206Z" fill="white"/>
<path d="M24.7294 1.88299C26.2338 4.44401 22.5976 9.28241 16.605 12.6818C10.6123 16.0854 4.53914 16.7653 3.03465 14.2001C2.96773 14.0748 2.91239 13.9436 2.86935 13.808C2.73126 13.0363 2.76743 12.2429 2.97514 11.4873C3.18285 10.7317 3.55672 10.0336 4.06874 9.44508C4.25099 9.19065 4.43747 8.94039 4.62817 8.6943C6.38489 6.4498 8.56086 4.57754 11.0319 3.18436C13.5196 1.76866 16.2537 0.852355 19.0842 0.485698C19.4063 0.439816 19.72 0.406448 20.0251 0.385593C20.8033 0.244078 21.6024 0.274028 22.3681 0.473404C23.1338 0.67278 23.848 1.0369 24.4623 1.54097C24.561 1.64686 24.6504 1.76131 24.7294 1.88299Z" fill="white"/>
<path d="M34.0208 4.65268C36.6483 9.1282 31.3466 16.9739 22.1839 22.1794C13.0213 27.3848 3.4601 27.977 0.836727 23.5015C0.402596 22.7499 0.156701 21.9022 0.120499 21.0322C0.00224136 24.1073 0.561036 27.1706 1.75639 30C1.93863 30.4337 2.13783 30.8634 2.34973 31.2888L2.37938 31.343C3.20223 32.7055 4.38758 33.8056 5.79951 34.5172C10.9403 37.2242 19.6326 36.2941 27.7613 31.6767C35.8855 27.0594 41.0518 20.1229 41.2425 14.3919C41.3196 12.8226 40.9473 11.2641 40.1703 9.90391C39.8737 9.46595 39.5642 9.03633 39.238 8.62757C37.3376 6.21654 34.9543 4.24058 32.2452 2.82983C32.9701 3.28794 33.5783 3.91245 34.0208 4.65268Z" fill="white"/>
<path d="M21.9666 42.8015L21.9594 42.8014L21.9522 42.8015C16.3743 42.8819 10.992 40.7159 6.98893 36.7777C2.98738 32.841 0.69166 27.4554 0.607964 21.8039C0.691644 16.1524 2.98736 10.7669 6.98891 6.83016C10.992 2.89196 16.3743 0.725952 21.9522 0.806361L21.9594 0.806465L21.9666 0.806361C27.5445 0.725957 32.9269 2.89197 36.9299 6.83017C40.9315 10.7669 43.2272 16.1524 43.3109 21.8039C43.2272 27.4554 40.9315 32.841 36.9299 36.7777C32.9269 40.7159 27.5445 42.8819 21.9666 42.8015Z" stroke="white"/>
</g>
<defs>
<clipPath id="clip0_200_377">
<rect width="223" height="43" fill="white" transform="translate(0.10498 0.306396)"/>
</clipPath>
</defs>
</svg>
