<svg width="156" height="68" viewBox="0 0 156 68" fill="none" xmlns="http://www.w3.org/2000/svg">
<mask id="mask0_200_330" style="mask-type:luminance" maskUnits="userSpaceOnUse" x="5" y="4" width="146" height="60">
<path d="M5.2085 63.5387H150.888V4.91626H5.2085V63.5387Z" fill="white"/>
</mask>
<g mask="url(#mask0_200_330)">
<path d="M127.734 40.2644C127.688 39.9902 127.688 39.7516 129.052 39.3251C130.411 38.9037 133.716 37.7816 135.724 36.6696C137.732 35.5476 138.066 35.3902 138.538 35.705C139.009 36.0147 138.873 36.7763 138.873 37.3145V42.7675C139.608 41.5591 142.021 37.5379 143.937 36.3549C145.443 35.4206 145.976 35.3445 146.908 35.3242C148.029 35.3039 150.675 35.9944 150.792 38.792C150.883 40.9803 149.271 41.8586 148.247 41.7216C147.426 41.6048 146.837 40.8483 146.351 40.0867C145.859 39.3149 145.078 38.858 144.297 39.122C143.517 39.3911 139.141 42.2344 138.893 46.2759C138.715 49.2512 138.893 58.5274 138.893 58.5274C138.893 59.9338 139.43 60.4771 140.059 60.8528C140.682 61.2336 142.979 61.2539 143.623 61.3453C144.277 61.4367 144.252 61.589 144.252 61.7921C144.252 61.9901 144.252 62.0866 143.674 62.0866H128.292C127.8 62.0866 127.602 61.9901 127.602 61.7007C127.602 61.2996 128.246 61.3707 128.738 61.2996C129.23 61.2336 131.83 61.4468 132.576 60.1369C133.123 59.2788 133.057 57.8978 133.057 57.8978L132.981 41.6048C132.981 40.2898 132.591 40.0968 132.231 39.8886C131.866 39.6805 131.263 39.5688 129.99 40.0004C128.788 40.3964 127.962 40.767 127.734 40.2644Z" fill="white"/>
<path d="M73.9366 40.2693C73.7287 39.8682 74.114 39.6092 75.2548 39.3097C76.5273 38.9695 79.3158 38.1216 81.5263 36.8675C83.7368 35.6185 84.117 35.4865 84.5835 35.6388C85.055 35.7962 85.0093 36.6238 85.0093 37.294V58.3749C85.0093 59.5579 85.1665 60.0504 85.6989 60.5429C86.2363 61.0354 87.5747 61.3248 89.3137 61.3248C90.0996 61.3248 90.3429 61.4162 90.3429 61.7513C90.3429 62.0864 90.0996 62.0864 89.7852 62.0864H74.5196C74.0481 62.0864 73.9366 61.8833 73.9366 61.6853C73.9366 61.4365 74.1445 61.2791 74.8543 61.2791C75.4525 61.2791 78.2156 61.4873 78.8443 60.0504C79.0877 59.5021 79.2043 58.7354 79.2043 58.0195V41.2949C79.2043 40.0256 78.2207 39.462 77.085 39.7362C75.7567 40.0408 74.2104 40.7922 73.9366 40.2693Z" fill="white"/>
<path d="M81.7189 25.6872C83.7925 25.6872 85.4757 24.0016 85.4757 21.93C85.4757 19.8534 83.7925 18.1729 81.7189 18.1729C79.6503 18.1729 77.9722 19.8534 77.9722 21.93C77.9722 24.0016 79.6503 25.6872 81.7189 25.6872Z" fill="white"/>
<path d="M100.067 49.5963C100.822 56.4354 104.888 61.7564 109.928 60.8628C114.978 59.9692 117.508 55.1407 116.899 47.408C116.276 39.5433 112.392 35.6185 107.165 36.0907C101.76 36.5832 99.3065 42.7521 100.067 49.5963ZM105.066 34.8874C111.571 33.6688 120.823 35.1057 122.927 45.3009C125.026 55.4961 118.02 60.9237 111.941 62.2489C105.999 63.5385 95.9096 62.6196 94.0844 51.6526C92.4418 41.8077 99.5752 35.913 105.066 34.8874Z" fill="white"/>
<path d="M28.0533 60.4365H31.8254C45.8589 60.4365 49.6259 59.1316 54.564 52.5616C59.5021 45.9916 60.0903 36.558 60.0903 33.3694C60.0903 30.1809 59.2436 22.1791 54.3055 15.411C49.3623 8.643 41.1135 6.88625 33.899 6.88625H28.0229C26.6287 6.88625 26.5577 7.50568 26.5577 8.48052V59.1976C26.5577 60.3045 26.9481 60.4365 28.0533 60.4365ZM5.20312 61.6246C5.20312 61.1118 5.86729 61.0255 6.48582 61.0051C13.6294 60.8021 14.9628 60.5533 15.779 59.7054C16.2252 59.2382 16.8792 58.8574 16.8792 55.542V9.92755C16.8792 5.83017 11.9107 6.48007 8.40226 6.11958C7.17026 5.99772 7.06886 5.83017 7.06886 5.46968C7.06886 5.11427 7.30208 4.94165 7.94596 4.91626H36.728C68.3745 4.91626 69.9918 28.084 69.9918 34.263C69.9918 47.5402 61.2259 62.1425 42.9032 62.1425H6.12585C5.67463 62.1425 5.20312 62.0815 5.20312 61.6246Z" fill="white"/>
</g>
</svg>
