<svg width="145" height="65" viewBox="0 0 145 65" fill="none" xmlns="http://www.w3.org/2000/svg">
<g clip-path="url(#clip0_200_341)">
<path d="M102.415 6.55757V8.8835H122.392C123.721 8.8835 125.724 8.8835 127.057 10.2112C128.391 11.5439 128.391 13.5404 128.391 14.8732V34.8386C128.391 36.1714 128.391 38.1679 127.057 39.4956C125.724 40.8283 123.721 40.8283 122.392 40.8283H112.758C111.095 40.8283 108.925 40.8283 108.094 38.999C107.267 37.1646 108.425 35.5025 109.432 34.1748L122.413 16.895H102.435L94.4238 27.5365C93.0853 29.3203 91.9292 30.8658 91.9292 32.8573C91.9292 34.8539 93.0041 36.293 94.4238 38.1781L96.4216 40.8384C98.4193 43.4988 100.417 46.1592 103.064 47.4767C105.731 48.7993 108.895 48.7993 113.205 48.7993H121.875C126.875 48.7993 134.348 48.7993 139.368 43.813C144.357 38.8216 144.357 31.4992 144.357 28.8642V20.8577C144.357 18.1923 144.357 10.875 139.368 5.90895C134.369 0.912506 126.895 0.927708 121.875 0.92264L108.084 0.915039C106.76 0.915039 105.087 0.915039 103.753 2.24776C102.43 3.58048 102.43 5.24259 102.43 6.57531" fill="white"/>
<path d="M78.5841 16.8442H98.3588L74.5278 48.7688H54.2461L78.5841 16.8442Z" fill="white"/>
<path d="M0.499509 22.5199C0.499509 21.1923 0.499509 19.5251 1.83303 18.1924C3.16148 16.8647 4.83472 16.8647 6.16317 16.8647H39.628C43.953 16.8647 47.1322 16.8647 49.7688 18.1924C52.4257 19.5302 54.4234 22.1906 56.4111 24.8307L58.4139 27.4911C59.8387 29.3812 60.9187 30.8203 60.9187 32.8118C60.9187 34.8084 59.7525 36.3539 58.4139 38.1326L50.4026 48.7741H30.4251L43.4054 31.4943C44.4043 30.1616 45.5756 28.5045 44.7389 26.6701C43.9125 24.8459 41.7474 24.8459 40.0843 24.8459H24.4167V64.7769H8.44486V24.8459H0.433594V22.5149" fill="white"/>
</g>
<defs>
<clipPath id="clip0_200_341">
<rect width="144" height="63.8491" fill="white" transform="translate(0.499512 0.881836)"/>
</clipPath>
</defs>
</svg>
