<svg width="100" height="100" viewBox="0 0 100 100" fill="none" xmlns="http://www.w3.org/2000/svg">
<g clip-path="url(#clip0_427_57)">
<path d="M50 0C22.3867 0 0 22.3867 0 50C0 77.6133 22.3867 100 50 100C77.6133 100 100 77.6133 100 50C100 22.3867 77.6133 0 50 0ZM66.002 23.5488C68.1783 23.5488 70.3058 24.1942 72.1154 25.4033C73.925 26.6124 75.3354 28.331 76.1682 30.3417C77.0011 32.3524 77.219 34.5649 76.7944 36.6995C76.3698 38.834 75.3218 40.7947 73.7829 42.3337C72.244 43.8726 70.2833 44.9206 68.1487 45.3452C66.0142 45.7698 63.8016 45.5519 61.7909 44.719C59.7802 43.8862 58.0617 42.4758 56.8525 40.6662C55.6434 38.8566 54.998 36.7291 54.998 34.5527C54.9986 31.6345 56.1581 28.8359 58.2216 26.7724C60.2851 24.7089 63.0837 23.5493 66.002 23.5488ZM76.7188 73.9766C75.8242 75.5254 74.0879 76.4492 72.0723 76.4512H64.6953C52.4557 76.4512 40.2161 76.4512 27.9766 76.4512C25.9219 76.4512 24.1602 75.5215 23.2656 73.9629C22.3711 72.4043 22.459 70.4473 23.4805 68.707C28.6797 59.8008 33.5039 51.5566 38.2266 43.5117C39.25 41.7695 40.8535 40.7773 42.6289 40.7637H42.6523C44.4258 40.7637 46.0977 41.8125 47.1211 43.5684C49.375 47.4303 51.6283 51.2936 53.8809 55.1582L56.4199 59.5059L57.2734 57.9902C57.918 56.8438 58.6406 55.5469 59.373 54.2793C60.3262 52.6133 61.9609 51.6152 63.7422 51.6094H63.7617C65.5391 51.6094 67.1738 52.5859 68.1387 54.2519C71.1016 59.3418 73.8516 64.082 76.5371 68.7441C77.5391 70.4707 77.6113 72.4316 76.7188 73.9766Z" fill="#399FD8"/>
</g>
<defs>
<clipPath id="clip0_427_57">
<rect width="100" height="100" fill="white"/>
</clipPath>
</defs>
</svg>
