<svg width="150" height="92" viewBox="0 0 150 92" fill="none" xmlns="http://www.w3.org/2000/svg">
<path d="M9.55518 83.4984C10.6696 83.4984 11.363 83.3415 11.685 83.0031C11.9986 82.6729 12.1637 82.4005 12.1637 82.2023C12.1637 81.9877 11.9986 81.7153 11.685 81.3851C11.363 81.0384 10.6696 80.8733 9.55518 80.8733H4.66826V83.5066H9.55518M4.66826 91.0269H0.524276L0.499512 87.2461V81.674L0.524276 77.885H11.4868C13.3525 77.885 14.632 78.2152 15.3089 78.8674C15.9775 79.536 16.316 80.4605 16.316 81.674V82.7307C16.316 83.9441 15.9775 84.8769 15.3089 85.5291C14.632 86.1812 13.3525 86.4949 11.4868 86.4949H4.66826V91.0269Z" fill="white"/>
<path d="M30.4153 82.9701C30.4153 82.2354 30.2419 81.7153 29.9282 81.3851C29.6063 81.0384 28.8963 80.8733 27.815 80.8733H25.4705C24.4634 80.8733 23.7865 81.0797 23.4398 81.4429C23.0931 81.7979 22.9445 82.3014 22.9445 82.9783V85.9749C22.9445 86.6187 23.0931 87.1306 23.4398 87.4855C23.7865 87.8652 24.4634 88.0386 25.4705 88.0386H27.815C28.8963 88.0386 29.6063 87.8652 29.92 87.535C30.2006 87.2214 30.374 86.6765 30.4153 85.9831V82.9701ZM33.5521 90.0776C32.8835 90.7049 31.5957 91.0269 29.7549 91.0269H23.6462C21.8054 91.0269 20.5093 90.7297 19.8324 90.0776C19.0977 89.475 18.7593 88.5009 18.7593 87.2461V81.674C18.7593 80.411 19.0977 79.4534 19.8324 78.8261C20.5093 78.2152 21.8054 77.885 23.6462 77.885H29.7549C31.5957 77.885 32.8835 78.2152 33.5521 78.8674C34.2373 79.536 34.5923 80.4605 34.5923 81.674V87.2461C34.5923 88.4761 34.2373 89.4007 33.5521 90.0776Z" fill="white"/>
<path d="M51.7875 90.0776C51.1106 90.7049 49.8394 91.0269 48.0068 91.0269H41.9146C40.0738 91.0269 38.7943 90.7297 38.0761 90.0776C37.3579 89.475 37.0029 88.5009 37.0029 87.2461V81.674C37.0029 80.411 37.3579 79.4534 38.0761 78.8261C38.7943 78.2152 40.0738 77.885 41.9146 77.885H48.0068C49.8476 77.885 51.1106 78.2152 51.7875 78.8674C52.4892 79.536 52.8277 80.4605 52.8277 81.674V82.9701H48.6589C48.6589 82.2354 48.4938 81.7153 48.1884 81.3851C47.8582 81.0384 47.1648 80.8733 46.0751 80.8733H43.739C42.7319 80.8733 42.0467 81.0797 41.6835 81.4429C41.3533 81.7979 41.1634 82.3014 41.1634 82.9783V85.9749C41.1634 86.6187 41.345 87.1306 41.6835 87.4855C42.0467 87.8652 42.7319 88.0386 43.739 88.0386H46.0751C47.1648 88.0386 47.8582 87.8652 48.1884 87.535C48.4938 87.2214 48.6589 86.6765 48.6589 85.9749H52.8277V87.2461C52.8277 88.4761 52.4892 89.4007 51.7875 90.0776Z" fill="white"/>
<path d="M59.4066 91.0269H55.2792L55.2544 87.2461V81.674L55.2792 77.885H59.4066V82.9205H66.8856V77.885H71.0874V91.0269H66.8856V85.9088H59.4066V91.0269Z" fill="white"/>
<path d="M78.8556 85.9088H77.6668C77.6916 86.5857 77.8567 87.1306 78.2034 87.4855C78.5336 87.857 79.227 88.0386 80.2424 88.0386H89.3311V91.0269H78.418C76.5772 91.0269 75.2977 90.7297 74.5712 90.0776C73.8696 89.475 73.5063 88.5009 73.5063 87.2461V81.674C73.5063 80.411 73.8696 79.4534 74.5712 78.8261C75.3059 78.2152 76.5772 77.885 78.418 77.885H89.3311V80.8733H80.2424C79.227 80.8733 78.5336 81.0797 78.2034 81.4429C77.8567 81.7979 77.6916 82.2766 77.6668 82.9288H89.3311V85.9171H78.8556" fill="white"/>
<path d="M121.327 80.865H115.623V77.885H131.431V80.865H125.479V91.0269H121.327V80.865Z" fill="white"/>
<path d="M137.457 85.3972V88.0222H142.344C143.442 88.0222 144.152 87.8489 144.466 87.5269C144.779 87.1802 144.936 86.9161 144.936 86.718C144.936 86.5033 144.779 86.2144 144.466 85.8925C144.152 85.5375 143.442 85.3889 142.344 85.3889H137.457M137.457 82.4089H144.284C146.125 82.4089 147.404 82.7391 148.081 83.4077C148.767 84.0434 149.105 84.9844 149.105 86.2062V87.2463C149.105 88.4597 148.767 89.4008 148.081 90.0447C147.404 90.6968 146.125 91.027 144.284 91.027H133.305L133.28 87.2463V81.6494L133.305 77.8687H137.457V82.4089Z" fill="white"/>
<path d="M95.7533 84.1177C95.7533 82.475 97.2062 82.6566 97.2062 82.6566H101.4V85.4303H97.1732C97.1732 85.4303 95.7533 85.488 95.7533 84.1177ZM109.745 85.4303H105.519V82.6566H109.721C109.721 82.6566 111.174 82.475 111.174 84.1177C111.174 85.488 109.745 85.4303 109.745 85.4303ZM111.958 79.8664H105.519V77.7944H101.424V79.8664H94.837C94.837 79.8664 91.0728 79.9985 91.0728 83.9939C91.0728 88.0223 94.9361 88.0553 94.9361 88.0553H101.424V91.1262H105.519V88.0553H111.85C111.85 88.0553 115.697 88.0223 115.697 83.9939C115.697 79.9985 111.958 79.8664 111.958 79.8664Z" fill="white"/>
<path d="M65.4037 63.683V37.0436H70.506V63.683H65.4037Z" stroke="white" stroke-width="0.700936"/>
<path d="M72.2885 63.6829V31.3971H77.3907V63.6829H72.2885Z" stroke="white" stroke-width="0.700936"/>
<path d="M79.1644 63.683V37.0436H84.2585V63.683H79.1644Z" stroke="white" stroke-width="0.700936"/>
<path d="M57.1202 37.7745L51.3252 32.8793V18.8872H57.1202V37.7745Z" fill="white"/>
<path d="M64.0048 43.8749L58.1851 38.4762V12.6877H64.0048V43.8749Z" fill="white"/>
<path d="M70.8564 6.59546H65.0532V35.8427H70.8564V6.59546Z" fill="white"/>
<path d="M77.7412 0.486816H71.938V29.8496H77.7412V0.486816Z" fill="white"/>
<path d="M92.5586 37.7745L98.3536 32.8793V18.8872H92.5586V37.7745Z" fill="white"/>
<path d="M85.6821 43.8749L91.4689 38.4762V12.6877H85.6821V43.8749Z" fill="white"/>
<path d="M84.6089 6.59546H78.814V35.8427H84.6089V6.59546Z" fill="white"/>
</svg>
