<svg width="213" height="89" viewBox="0 0 213 89" fill="none" xmlns="http://www.w3.org/2000/svg">
<path d="M129.708 30.0201V30.0396L129.709 30.0592C129.835 31.6607 129.835 33.6248 129.835 35.2273V37.7049H101.461H100.961V38.2049V49.3813C100.219 49.4761 99.6774 49.523 98.9852 49.5357V35.8807H127.156H127.656V35.3807V31.0246C127.656 30.898 127.644 30.7562 127.633 30.6338C127.632 30.6221 127.631 30.6105 127.63 30.5992L127.63 30.5944C127.615 30.4355 127.603 30.2845 127.603 30.1424V30.1162L127.6 30.0901C127.373 27.9263 126.147 24.9784 124.126 22.1879C122.1 19.3889 119.237 16.6987 115.683 15.087L115.682 15.0863C112.816 13.7986 109.252 13.1314 105.879 12.4998L105.856 12.4955C105.856 12.4955 105.856 12.4955 105.856 12.4955C104.237 12.1924 102.683 11.9009 101.315 11.5575C99.9407 11.2126 98.795 10.8248 97.9787 10.3451L97.9765 10.3438C97.2217 9.90538 96.6865 9.5162 96.2479 9.09667L95.4023 8.28782V9.45799V29.8509H93.23V2.88105C93.4816 3.27473 93.7598 3.65501 94.0532 4.0039L94.0532 4.00393L94.0575 4.00893C94.66 4.70639 95.3882 5.42083 96.0294 6.0017C96.6612 6.57404 97.2371 7.04262 97.5374 7.23578C97.7155 7.3526 97.9214 7.46805 98.1063 7.57175C98.1277 7.58376 98.1488 7.59561 98.1696 7.60728L98.1698 7.60737C98.3977 7.73538 98.6123 7.85656 98.786 7.97284L98.797 7.98019L98.8083 7.98695C100.867 9.21332 103.818 9.75206 106.808 10.2979L106.884 10.3117L106.884 10.3117C110.418 10.9562 114.31 11.6703 117.434 13.5124L117.455 13.5247L117.477 13.5349C120.091 14.7533 122.908 16.979 125.182 19.73C127.458 22.4821 129.157 25.7193 129.592 28.9445L129.592 28.9445L129.594 28.956L129.61 29.0597L129.611 29.0646L129.614 29.0837C129.663 29.4187 129.708 29.7179 129.708 30.0201Z" fill="white" stroke="white"/>
<path d="M0.10498 67.3992V88.425H9.11352C11.793 88.425 13.4651 87.6785 14.4697 86.7894C15.6276 85.7745 16.4183 84.1352 16.4183 82.1122C16.4183 80.0582 15.4741 78.3284 14.2248 77.2583C12.581 75.8592 10.4826 75.9155 8.53551 75.9155H3.78766V70.8244H14.5303V67.3992H0.10498ZM41.2025 67.3992V88.3972H44.8499V79.1489H54.184V88.3972H57.8288V67.3992H54.184V75.8978H44.8499V67.3992H41.2025ZM26.1942 67.4018L19.4826 88.3721H23.1854L24.1572 85.073H32.6281L33.6605 88.3721H37.487L30.5634 67.4018H26.1942ZM74.0614 67.4094L65.6435 76.0469V67.4119H62.0012V88.4403H65.6435V78.7729L74.7606 88.4403H79.3191L69.2505 77.1853L78.5619 67.4119L74.0614 67.4094ZM28.3498 70.1657C28.4411 70.8481 28.5926 71.6789 28.7132 72.0941L31.6261 81.8397H25.1593L28.0444 72.0335C28.1649 71.589 28.2877 70.6999 28.3498 70.1657ZM3.78766 79.1314H8.62638C9.53964 79.1314 10.6971 79.1889 11.519 79.9315C12.067 80.4415 12.4933 81.2228 12.4933 82.236C12.4933 83.039 12.1881 83.7489 11.6074 84.2831C11.0594 84.7896 10.0858 85.1816 8.98985 85.1816H3.78766V79.1314Z" fill="white"/>
<path d="M143.933 83.5872L143.933 83.5873L143.937 83.5819C144.134 83.3065 144.332 82.9779 144.519 82.5995H147.489C147.108 83.595 146.562 84.5811 145.766 85.4828C143.792 87.6911 141.31 88.2202 139.33 88.2202C137.348 88.2202 134.869 87.6912 132.897 85.4831C130.735 83.0376 130.352 79.9613 130.352 77.864C130.352 75.7669 130.735 72.69 132.896 70.2428C134.869 68.0393 137.349 67.5078 139.33 67.5078C141.31 67.5078 143.792 68.0393 145.766 70.2427C146.753 71.3596 147.362 72.6075 147.739 73.8378H144.833C144.564 73.1325 144.244 72.5755 143.938 72.1448L143.938 72.1447L143.933 72.1384C142.582 70.3011 140.788 69.8523 139.33 69.8523C137.872 69.8523 136.08 70.3013 134.73 72.1384L134.73 72.1384L134.726 72.1439C133.973 73.1966 133.161 74.9457 133.161 77.864C133.161 80.7843 133.973 82.529 134.726 83.5816L134.726 83.5816L134.73 83.5872C136.08 85.4223 137.872 85.8732 139.33 85.8732C140.788 85.8732 142.582 85.4224 143.933 83.5872ZM165.171 83.5873L165.175 83.5819C165.372 83.3065 165.57 82.9779 165.757 82.5995H168.727C168.346 83.5951 167.8 84.5812 167.004 85.483C165.03 87.6912 162.549 88.2202 160.568 88.2202C158.588 88.2202 156.105 87.6911 154.135 85.4834C151.972 83.0379 151.59 79.9616 151.59 77.864C151.59 75.7666 151.972 72.6897 154.134 70.2426C156.105 68.0394 158.588 67.5078 160.568 67.5078C162.549 67.5078 165.03 68.0393 167.004 70.2427C167.99 71.3601 168.601 72.6082 168.978 73.8378H166.071C165.802 73.133 165.484 72.5755 165.175 72.1437L165.171 72.1384C163.82 70.3012 162.027 69.8523 160.568 69.8523C159.112 69.8523 157.318 70.3013 155.967 72.1384L155.964 72.1439C155.211 73.197 154.401 74.9461 154.401 77.864C154.401 80.7838 155.211 82.5287 155.963 83.5816L155.968 83.5872C157.318 85.4223 159.112 85.8732 160.568 85.8732C162.028 85.8732 163.82 85.4224 165.171 83.5873ZM93.4796 80.2364H92.9796V80.7364V87.8466H90.2969V67.8284H97.3743C100.046 67.8284 101.599 68.7335 102.421 69.4844C103.152 70.1737 104.177 71.5929 104.177 74.2066C104.177 76.2706 103.483 77.5858 102.439 78.719L102.438 78.7191C101.526 79.7087 99.7889 80.2364 97.6166 80.2364H93.4796ZM200.258 80.5912L200.737 79.9058L199.906 79.8082C197.354 79.5085 195.143 77.5028 195.143 74.0072C195.143 72.7457 195.411 71.2248 196.336 70.0292C197.242 68.8575 198.842 67.9167 201.686 67.9167L211.605 67.9167V87.8416H208.983V80.7036V80.2036H208.483H203.73H203.464L203.315 80.4245L198.325 87.8416H195.191L200.258 80.5912ZM189.613 67.9495V87.8391H186.985V73.7219V72.0823L186.071 73.4429L176.39 87.8391H173.527V67.9495H176.157V81.9733V83.6042L177.071 82.2535L186.751 67.9495H189.613ZM121.937 72.1444L121.937 72.1443L121.933 72.1384C120.582 70.3017 118.791 69.8497 117.332 69.8497C115.874 69.8497 114.08 70.3015 112.729 72.1384L112.729 72.1384L112.725 72.1444C111.975 73.1969 111.163 74.9449 111.163 77.8615C111.163 80.7833 111.975 82.5287 112.725 83.5811L112.725 83.5812L112.73 83.5872C114.08 85.422 115.874 85.8758 117.332 85.8758C118.791 85.8758 120.582 85.4219 121.933 83.5872L121.933 83.5873L121.937 83.5811C122.687 82.529 123.502 80.7837 123.502 77.8615C123.502 74.9444 122.687 73.1965 121.937 72.1444ZM208.983 70.5769V70.0769H208.483H203.253C203.12 70.0769 202.967 70.0714 202.788 70.065C202.746 70.0635 202.704 70.0619 202.659 70.0604C202.429 70.0524 202.169 70.0451 201.895 70.0492L201.903 70.5491L201.895 70.0492C201.092 70.0612 200.087 70.1692 199.278 70.7243C198.429 71.306 197.892 72.3077 197.892 73.8835C197.892 74.7155 198.039 75.7907 198.865 76.6493C199.691 77.508 201.096 78.0485 203.374 78.0485H208.483H208.983V77.5485V70.5769ZM93.4796 70.0769H92.9796V70.5769V77.5359V78.0359H93.4796H97.1925C98.6208 78.0359 99.6032 77.5433 100.188 76.9688L100.188 76.9687C100.764 76.4029 101.315 75.5053 101.315 74.0223C101.315 72.6742 100.869 71.8099 100.26 71.1808L100.26 71.1807L100.257 71.1773C99.2207 70.1271 97.7825 70.0769 97.2506 70.0769H93.4796ZM110.896 70.2427C112.869 68.0394 115.351 67.5078 117.332 67.5078C119.31 67.5078 121.792 68.0393 123.766 70.2428C125.926 72.6903 126.313 75.7668 126.313 77.8615C126.313 79.9599 125.925 83.0388 123.766 85.4828C121.792 87.6912 119.311 88.2202 117.332 88.2202C115.35 88.2202 112.868 87.691 110.896 85.4826C108.735 83.0389 108.352 79.9605 108.352 77.8615C108.352 75.7662 108.735 72.69 110.896 70.2427Z" stroke="white"/>
<path d="M128.95 40.6463H103.628V43.6583H120.963C120.362 44.2045 119.829 44.6077 118.818 45.3401L118.807 45.3504C112.647 49.3584 104.547 51.6002 95.9899 51.6622V33.2506H125.045V30.0266H76.2325C76.3049 29.1358 76.4272 28.2828 76.6081 27.4264C76.6684 27.1163 76.7322 26.794 76.7891 26.5494C76.9872 25.705 77.2336 24.9314 77.5179 24.2438L77.9677 24.3955C78.5449 24.5867 79.1411 24.7866 79.7649 24.9779C81.3898 25.4741 82.932 25.8239 84.4811 26.0497L84.9188 26.1065C86.1077 26.3512 87.4845 26.5408 89.006 26.6717C90.2174 26.7768 91.427 26.832 92.759 26.8888V23.4081C91.6993 23.3788 90.5775 23.3082 89.3248 23.1858C87.9911 23.06 86.6901 22.9291 85.4305 22.6809C85.1169 22.6809 84.7913 22.6155 84.5069 22.5534C82.6908 22.2278 81.1572 21.8418 79.8045 21.3714C79.6064 21.33 79.4117 21.2697 79.2238 21.2077C79.1566 21.187 79.0912 21.1646 79.0274 21.1474C79.2049 20.8131 79.4048 20.5046 79.6167 20.179C79.6943 20.0566 79.7752 19.9308 79.8562 19.8033C81.0796 18.0268 82.6994 16.3829 84.5397 15.0475C86.8728 13.3554 89.5419 12.244 92.4574 11.7443C92.5229 11.7443 92.5919 11.7391 92.6625 11.7322C92.6935 11.7288 92.7262 11.7288 92.759 11.7254V8.1792L92.6815 8.20333C92.597 8.22917 92.5091 8.24468 92.423 8.25847C92.3265 8.27398 92.2266 8.28949 92.1301 8.32222C89.5678 8.50832 86.9934 8.87018 84.4759 9.39573C82.6942 9.80239 81.1537 10.2521 79.7666 10.7691C78.7655 11.0654 77.7833 11.4273 76.6788 11.9046C75.8258 12.2785 74.8885 12.7369 73.7253 13.3451C71.9815 14.2946 70.5014 15.2406 69.1987 16.2383C67.112 17.8425 65.3337 19.6638 63.9104 21.6523C62.8559 23.148 62.0305 24.7384 61.4584 26.3823C60.8657 28.1451 60.5762 29.8544 60.5762 31.6068V31.6706C60.5762 37.3 63.6382 42.7796 69.2004 47.1046C69.5244 47.3303 69.8655 47.5733 70.205 47.8163C70.5255 48.0437 70.846 48.2712 71.1527 48.4866C71.7627 48.8674 72.4227 49.2465 73.0602 49.6135C73.2825 49.7427 73.5031 49.8702 73.7271 49.9995C74.5404 50.4302 75.4192 50.8179 76.2687 51.1953L76.6788 51.378C77.5765 51.7674 78.5277 52.1361 79.7632 52.5738C81.3192 53.089 82.9044 53.5353 84.4759 53.8972C88.1152 54.7122 91.9181 55.124 95.7796 55.124H95.7813C105.248 55.124 114.108 52.6807 120.724 48.2419C122.076 47.4096 123.239 46.4188 124.315 45.4694C125.242 44.6078 127.916 41.968 128.845 40.7945L128.948 40.6618H128.924L128.95 40.6463ZM73.3704 17.5391C73.5048 17.4564 73.6564 17.3651 73.8063 17.2531C74.6817 16.7258 75.6328 16.2502 76.553 15.7867L76.7477 15.6902C77.5403 15.2956 78.3123 14.9855 79.1291 14.6563C79.3565 14.565 79.5857 14.472 79.8166 14.3772C79.8959 14.3479 79.9751 14.3221 80.0527 14.2962C79.9476 14.403 79.8407 14.5099 79.7322 14.6167C78.5277 15.816 77.4887 17.0877 76.6443 18.3921C76.4875 18.6161 76.3428 18.8573 76.2015 19.0917C76.0757 19.2985 75.9465 19.5138 75.8086 19.7137C75.0866 19.3174 74.4163 18.8453 73.8218 18.3214C73.5461 18.0509 73.3497 17.839 73.1963 17.6443C73.2515 17.6098 73.3101 17.5753 73.3704 17.5391ZM64.7479 27.4919C65.1907 26.1806 65.8644 24.8814 66.7467 23.6321C67.4308 22.7292 68.2699 21.6764 69.3055 20.6942C69.4951 20.5029 69.6898 20.3254 69.8776 20.1549C70.0396 20.0049 70.2067 19.8533 70.3704 19.6913C71.1803 20.7252 72.3089 21.6591 73.7202 22.4621C73.7632 22.4914 73.8115 22.5224 73.8632 22.5586C74.0062 22.6534 74.182 22.7723 74.356 22.8688C74.1268 23.4426 73.8735 24.118 73.6874 24.8125L73.6116 25.0709C73.4565 25.6051 73.2963 26.1565 73.1895 26.7027C72.9982 27.8314 72.8207 28.9359 72.7518 30.0266H64.1396C64.2723 29.1048 64.4704 28.2742 64.7479 27.4919ZM71.3733 42.9105L71.3492 42.9432C71.1286 43.2275 70.9029 43.517 70.6754 43.8444C70.2084 43.436 69.7294 43.0156 69.3038 42.5865C66.3176 39.7382 64.579 36.5986 64.1379 33.2506H72.7535C72.8758 34.9875 73.1808 36.6762 73.6857 38.4028C73.8718 39.1523 74.1251 39.8967 74.4198 40.5567C74.3112 40.6325 74.2044 40.698 74.0924 40.7669C73.9786 40.8375 73.8597 40.9099 73.7391 40.9943H73.6771L73.6564 41.0081C72.7587 41.5992 72.0143 42.2195 71.3733 42.9105ZM79.8166 48.9104C78.7534 48.5261 77.7781 48.1091 76.7477 47.5905L76.3324 47.3802C75.4864 46.9563 74.6128 46.5169 73.7908 46.0259C73.6909 45.9742 73.5944 45.9276 73.5048 45.8467C73.5875 45.7484 73.6702 45.6313 73.7564 45.5055L73.9511 45.2177C74.3181 44.8541 74.8333 44.3768 75.5656 43.9116C75.6191 43.8823 75.688 43.8427 75.7586 43.803C75.8172 43.7668 75.8792 43.7307 75.9344 43.7031C76.0516 43.8771 76.1687 44.0667 76.2807 44.251C76.3996 44.4458 76.522 44.6456 76.6443 44.8248C77.5317 46.1448 78.5708 47.394 79.7253 48.533C79.8683 48.7139 80.0182 48.8794 80.1716 49.0275C80.0527 48.981 79.9303 48.9362 79.8166 48.9104ZM92.7555 51.4658L92.5712 51.4296C91.9888 51.3159 91.3839 51.2004 90.7774 51.0419C89.6057 50.7731 88.3943 50.3078 86.8538 49.5341C85.9561 49.062 85.2427 48.6226 84.5397 48.1057C82.6942 46.8271 81.0762 45.185 79.8545 43.3567C79.5426 42.9173 79.3117 42.5589 79.0929 42.1798C79.2238 42.1213 79.3565 42.0765 79.5064 42.023C79.6029 41.9903 79.7063 41.9541 79.8132 41.9145C81.1813 41.4716 82.8045 41.0409 84.5087 40.6635C87.1054 40.1552 89.8021 39.8467 92.7555 39.7175V51.4658ZM92.7555 36.2454C89.7866 36.366 87.0038 36.6779 84.4776 37.1724C82.8751 37.4705 81.2899 37.8514 79.7649 38.308C79.0429 38.5303 78.2813 38.7784 77.5834 39.0903C77.3146 38.3545 77.1027 37.6515 76.8804 36.9071L76.7908 36.6055C76.5444 35.501 76.3617 34.4017 76.2359 33.2506H92.7556L92.7555 36.2454Z" fill="white"/>
</svg>
