<svg width="42" height="42" viewBox="0 0 42 42" fill="none" xmlns="http://www.w3.org/2000/svg">
<rect width="42" height="42" rx="21" fill="white"/>
<g clip-path="url(#clip0_589_743)">
<path d="M21.248 9H21.2418C14.4903 9 9 14.4918 9 21.2449C9 23.9235 9.86327 26.4061 11.3311 28.4219L9.8051 32.9709L14.5117 31.4663C16.448 32.749 18.7577 33.4898 21.248 33.4898C27.9995 33.4898 33.4898 27.9964 33.4898 21.2449C33.4898 14.4934 27.9995 9 21.248 9Z" fill="url(#paint0_linear_589_743)"/>
<path d="M28.3732 26.2914C28.0778 27.1256 26.9054 27.8174 25.9701 28.0195C25.3303 28.1557 24.4946 28.2644 21.6814 27.098C18.0829 25.6072 15.7656 21.9506 15.5849 21.7133C15.412 21.4761 14.1309 19.7771 14.1309 18.02C14.1309 16.2628 15.0232 15.4072 15.3829 15.0399C15.6783 14.7383 16.1666 14.6006 16.6349 14.6006C16.7865 14.6006 16.9227 14.6082 17.0451 14.6144C17.4048 14.6297 17.5855 14.6511 17.8227 15.219C18.1181 15.9307 18.8375 17.6878 18.9232 17.8684C19.0105 18.0491 19.0977 18.294 18.9752 18.5312C18.8605 18.7761 18.7594 18.8848 18.5788 19.0929C18.3982 19.3011 18.2268 19.4603 18.0462 19.6837C17.8809 19.8781 17.6941 20.0863 17.9023 20.446C18.1105 20.798 18.8298 21.972 19.889 22.9149C21.2559 24.1317 22.364 24.5205 22.7605 24.6858C23.0559 24.8082 23.4079 24.7792 23.6237 24.5496C23.8977 24.2542 24.236 23.7644 24.5803 23.2822C24.8252 22.9363 25.1344 22.8934 25.4589 23.0159C25.7895 23.1307 27.539 23.9955 27.8987 24.1746C28.2584 24.3552 28.4957 24.4409 28.5829 24.5924C28.6686 24.744 28.6686 25.4557 28.3732 26.2914Z" fill="white"/>
</g>
<defs>
<linearGradient id="paint0_linear_589_743" x1="8.38" y1="14.3" x2="33.7614" y2="17.7101" gradientUnits="userSpaceOnUse">
<stop stop-color="#60BBEE"/>
<stop offset="1" stop-color="#0A72AD"/>
</linearGradient>
<clipPath id="clip0_589_743">
<rect width="24.4898" height="24.4898" fill="white" transform="translate(9 9)"/>
</clipPath>
</defs>
</svg>
