<svg width="20" height="20" viewBox="0 0 20 20" fill="none" xmlns="http://www.w3.org/2000/svg">
<path d="M12.5562 13.4227L12.1007 13.9022C12.1007 13.9022 11.0181 15.042 8.0631 11.9309C5.10812 8.81984 6.1907 7.68007 6.1907 7.68007L6.47752 7.37811C7.1841 6.63424 7.2507 5.43997 6.63424 4.5681L5.37326 2.78461C4.61028 1.7055 3.13596 1.56295 2.26145 2.48364L0.691848 4.13614C0.258228 4.59266 -0.0323518 5.18445 0.0028882 5.84094C0.0930382 7.52046 0.810708 11.134 4.81536 15.3502C9.0621 19.8212 13.0468 19.9989 14.6763 19.8381C15.1917 19.7872 15.6399 19.5093 16.0011 19.129L17.4217 17.6334C18.3806 16.6239 18.1102 14.8932 16.8833 14.187L14.9728 13.0873C14.1672 12.6236 13.1858 12.7598 12.5562 13.4227Z" fill="white"/>
<path d="M10.2595 0.754833C10.3257 0.345943 10.7122 0.0685726 11.1211 0.134763C11.1464 0.139613 11.2279 0.154833 11.2705 0.164333C11.3559 0.183343 11.4749 0.212593 11.6233 0.255823C11.9201 0.342263 12.3347 0.484673 12.8323 0.712803C13.8286 1.16956 15.1544 1.96856 16.5302 3.34436C17.906 4.72016 18.705 6.04597 19.1617 7.04225C19.3899 7.53987 19.5323 7.95447 19.6187 8.25125C19.6619 8.39966 19.6912 8.51869 19.7102 8.60401C19.7197 8.64668 19.7267 8.68094 19.7315 8.70625L19.7373 8.73745C19.8034 9.1463 19.5286 9.5489 19.1197 9.6151C18.712 9.6811 18.3279 9.405 18.2601 8.9981C18.258 8.9871 18.2522 8.9578 18.2461 8.9301C18.2337 8.8747 18.2124 8.78688 18.1786 8.67072C18.1109 8.43839 17.9934 8.09306 17.7982 7.66738C17.4084 6.81707 16.7074 5.64289 15.4695 4.40502C14.2317 3.16716 13.0575 2.46617 12.2072 2.07634C11.7815 1.88118 11.4362 1.76365 11.2038 1.69597C11.0877 1.66214 10.9417 1.62863 10.8863 1.6163C10.4793 1.54847 10.1935 1.16255 10.2595 0.754833Z" fill="white"/>
<path fill-rule="evenodd" clip-rule="evenodd" d="M10.4857 4.20432C10.5995 3.80604 11.0146 3.57541 11.4129 3.6892L11.2069 4.41036C11.4129 3.68921 11.4129 3.6892 11.4129 3.6892L11.4144 3.68963L11.4192 3.69104L11.427 3.69335L11.4468 3.69952C11.4618 3.70434 11.4807 3.71062 11.5031 3.71859C11.548 3.73453 11.6074 3.75719 11.6802 3.78839C11.8259 3.85083 12.0249 3.94724 12.2695 4.09195C12.7589 4.38164 13.4271 4.86281 14.2121 5.64779C14.9971 6.43277 15.4782 7.10094 15.7679 7.59042C15.9126 7.83493 16.009 8.03399 16.0715 8.17968C16.1027 8.25247 16.1254 8.31184 16.1413 8.35675C16.1493 8.3792 16.1555 8.39802 16.1604 8.41311L16.1665 8.4329L16.1688 8.44065L16.1698 8.44398L16.1702 8.44552C16.1702 8.44552 16.1707 8.44695 15.4495 8.653L16.1707 8.44696C16.2845 8.84523 16.0538 9.26031 15.6556 9.37411C15.2607 9.48691 14.8492 9.26122 14.7313 8.86915L14.7276 8.85837C14.7223 8.84334 14.7113 8.81376 14.6928 8.77056C14.6558 8.68422 14.5887 8.54298 14.4771 8.35439C14.2541 7.97765 13.8514 7.40841 13.1514 6.70845C12.4515 6.00849 11.8822 5.6058 11.5055 5.38283C11.3169 5.27121 11.1757 5.20411 11.0893 5.16711C11.0461 5.1486 11.0165 5.13756 11.0015 5.13223L10.9907 5.12854C10.5987 5.01066 10.3729 4.59921 10.4857 4.20432Z" fill="white"/>
</svg>
