<svg width="21" height="20" viewBox="0 0 21 20" fill="none" xmlns="http://www.w3.org/2000/svg">
<path fill-rule="evenodd" clip-rule="evenodd" d="M10.6699 0H10.6749C16.1886 0 20.6724 4.48625 20.6724 10C20.6724 15.5138 16.1886 20 10.6749 20C8.64111 20 6.75486 19.395 5.17361 18.3475L1.32986 19.5763L2.57611 15.8612C1.37736 14.215 0.672363 12.1875 0.672363 10C0.672363 4.485 5.15611 0 10.6699 0ZM14.5311 15.5325C15.2948 15.3675 16.2523 14.8025 16.4936 14.1212C16.7348 13.4387 16.7348 12.8575 16.6648 12.7337C16.6083 12.6355 16.4746 12.5712 16.2751 12.4751C16.2231 12.4501 16.1667 12.4229 16.1061 12.3925C15.8123 12.2462 14.3836 11.54 14.1136 11.4462C13.8486 11.3462 13.5961 11.3812 13.3961 11.6637C13.358 11.717 13.3201 11.7704 13.2823 11.8234C13.041 12.1628 12.8083 12.4901 12.6148 12.6987C12.4386 12.8862 12.1511 12.91 11.9098 12.81C11.8835 12.799 11.8534 12.7868 11.8196 12.7732C11.4376 12.6189 10.5904 12.2767 9.56481 11.3637C8.69981 10.5937 8.11231 9.63498 7.94231 9.34748C7.77539 9.05907 7.91937 8.88995 8.05243 8.73365C8.05489 8.73076 8.05735 8.72787 8.0598 8.72498C8.14559 8.61884 8.22885 8.53045 8.31251 8.44162C8.3727 8.37773 8.43309 8.31361 8.4948 8.24248C8.50397 8.23192 8.51288 8.22167 8.52157 8.21169C8.6526 8.06102 8.73063 7.9713 8.81855 7.78373C8.91856 7.58998 8.84731 7.38998 8.77605 7.24248C8.72703 7.13918 8.42421 6.40444 8.16424 5.7737C8.053 5.50379 7.9496 5.25292 7.87731 5.07873C7.68356 4.61498 7.53606 4.59748 7.24231 4.58498C7.23331 4.58453 7.22422 4.58407 7.21504 4.58361C7.12219 4.57891 7.01992 4.57373 6.9073 4.57373C6.5248 4.57373 6.12605 4.68623 5.8848 4.93248C5.87637 4.94109 5.86759 4.95003 5.85847 4.9593C5.54983 5.27319 4.8623 5.97241 4.8623 7.36623C4.8623 8.76274 5.85319 10.1143 6.03652 10.3643C6.04158 10.3712 6.04602 10.3773 6.0498 10.3825C6.06084 10.397 6.08163 10.4271 6.11189 10.4709C6.48624 11.013 8.30959 13.6535 11.0286 14.78C13.3261 15.7325 14.0086 15.6437 14.5311 15.5325Z" fill="white"/>
</svg>
